<svg width="45" height="10" viewBox="0 0 45 10" fill="none" xmlns="http://www.w3.org/2000/svg">
<path d="M0.908 2.028V9H0.068V0.48H0.764L6.356 7.584V0.491999H7.196V9H6.416L0.908 2.028ZM11.7398 9.12C11.1398 9.12 10.6038 8.972 10.1318 8.676C9.66778 8.38 9.30378 7.988 9.03978 7.5C8.77578 7.004 8.64378 6.468 8.64378 5.892C8.64378 5.308 8.77578 4.772 9.03978 4.284C9.31178 3.788 9.67978 3.392 10.1438 3.096C10.6158 2.792 11.1478 2.64 11.7398 2.64C12.3398 2.64 12.8718 2.792 13.3358 3.096C13.8078 3.392 14.1758 3.788 14.4398 4.284C14.7118 4.772 14.8478 5.308 14.8478 5.892C14.8478 6.468 14.7158 7.004 14.4518 7.5C14.1878 7.988 13.8198 8.38 13.3478 8.676C12.8838 8.972 12.3478 9.12 11.7398 9.12ZM9.47178 5.904C9.47178 6.368 9.57178 6.792 9.77178 7.176C9.97978 7.552 10.2558 7.852 10.5998 8.076C10.9438 8.292 11.3238 8.4 11.7398 8.4C12.1558 8.4 12.5358 8.288 12.8798 8.064C13.2238 7.84 13.4998 7.536 13.7078 7.152C13.9158 6.768 14.0198 6.344 14.0198 5.88C14.0198 5.416 13.9158 4.992 13.7078 4.608C13.4998 4.224 13.2238 3.92 12.8798 3.696C12.5358 3.472 12.1558 3.36 11.7398 3.36C11.3318 3.36 10.9558 3.476 10.6118 3.708C10.2678 3.932 9.99178 4.236 9.78378 4.62C9.57578 5.004 9.47178 5.432 9.47178 5.904ZM25.5125 9H24.6965V5.508C24.6965 4.788 24.5805 4.256 24.3485 3.912C24.1165 3.56 23.7725 3.384 23.3165 3.384C22.8365 3.384 22.4125 3.552 22.0445 3.888C21.6765 4.224 21.4165 4.656 21.2645 5.184V9H20.4485V5.508C20.4485 4.772 20.3325 4.236 20.1005 3.9C19.8765 3.556 19.5365 3.384 19.0805 3.384C18.6085 3.384 18.1845 3.548 17.8085 3.876C17.4405 4.204 17.1805 4.636 17.0285 5.172V9H16.2125V2.748H16.9565V4.164C17.2125 3.684 17.5485 3.312 17.9645 3.048C18.3805 2.776 18.8405 2.64 19.3445 2.64C19.8645 2.64 20.2845 2.792 20.6045 3.096C20.9245 3.392 21.1205 3.776 21.1925 4.248C21.7685 3.176 22.5725 2.64 23.6045 2.64C24.3085 2.64 24.8005 2.888 25.0805 3.384C25.3685 3.872 25.5125 4.524 25.5125 5.34V9ZM30.2998 9.12C29.8118 9.12 29.3598 8.996 28.9438 8.748C28.5278 8.492 28.2038 8.172 27.9718 7.788V9H27.2398V0.24H28.0558V4.056C28.3358 3.632 28.6718 3.292 29.0638 3.036C29.4558 2.772 29.9118 2.64 30.4318 2.64C30.8718 2.64 31.2638 2.732 31.6078 2.916C31.9598 3.1 32.2598 3.348 32.5078 3.66C32.7558 3.964 32.9438 4.312 33.0718 4.704C33.1998 5.088 33.2638 5.484 33.2638 5.892C33.2638 6.476 33.1318 7.012 32.8678 7.5C32.6118 7.988 32.2598 8.38 31.8118 8.676C31.3638 8.972 30.8598 9.12 30.2998 9.12ZM30.1078 8.4C30.5638 8.4 30.9638 8.28 31.3078 8.04C31.6598 7.8 31.9358 7.492 32.1358 7.116C32.3358 6.732 32.4358 6.324 32.4358 5.892C32.4358 5.452 32.3398 5.04 32.1478 4.656C31.9638 4.272 31.7038 3.96 31.3678 3.72C31.0318 3.48 30.6438 3.36 30.2038 3.36C29.7158 3.36 29.2838 3.516 28.9078 3.828C28.5398 4.14 28.2558 4.504 28.0558 4.92V6.864C28.0958 7.152 28.2278 7.412 28.4518 7.644C28.6758 7.876 28.9398 8.06 29.2438 8.196C29.5478 8.332 29.8358 8.4 30.1078 8.4ZM37.7661 3.468C37.2221 3.484 36.7421 3.636 36.3261 3.924C35.9181 4.212 35.6301 4.608 35.4621 5.112V9H34.6461V2.748H35.4141V4.248C35.6301 3.808 35.9141 3.452 36.2661 3.18C36.6261 2.908 37.0061 2.756 37.4061 2.724C37.4861 2.716 37.5541 2.712 37.6101 2.712C37.6661 2.712 37.7181 2.716 37.7661 2.724V3.468ZM41.3656 9.12C40.7656 9.12 40.2296 8.972 39.7576 8.676C39.2856 8.38 38.9136 7.984 38.6416 7.488C38.3696 6.992 38.2336 6.448 38.2336 5.856C38.2336 5.272 38.3656 4.736 38.6296 4.248C38.9016 3.76 39.2736 3.372 39.7456 3.084C40.2176 2.788 40.7536 2.64 41.3536 2.64C41.9696 2.64 42.5096 2.788 42.9736 3.084C43.4376 3.38 43.7976 3.772 44.0536 4.26C44.3176 4.74 44.4496 5.268 44.4496 5.844C44.4496 5.972 44.4456 6.08 44.4376 6.168H39.0856C39.1256 6.616 39.2536 7.016 39.4696 7.368C39.6856 7.712 39.9616 7.988 40.2976 8.196C40.6336 8.396 41.0016 8.496 41.4016 8.496C41.8096 8.496 42.1936 8.392 42.5536 8.184C42.9136 7.976 43.1696 7.704 43.3216 7.368L44.0296 7.56C43.9016 7.864 43.7016 8.136 43.4296 8.376C43.1656 8.608 42.8576 8.792 42.5056 8.928C42.1536 9.056 41.7736 9.12 41.3656 9.12ZM39.0616 5.58H43.6816C43.6496 5.132 43.5256 4.736 43.3096 4.392C43.0936 4.04 42.8176 3.768 42.4816 3.576C42.1456 3.376 41.7736 3.276 41.3656 3.276C40.9576 3.276 40.5856 3.376 40.2496 3.576C39.9136 3.768 39.6376 4.04 39.4216 4.392C39.2136 4.736 39.0936 5.132 39.0616 5.58Z" fill="#A2A2A2"/>
</svg>
