<svg width="109" height="12" viewBox="0 0 109 12" fill="none" xmlns="http://www.w3.org/2000/svg">
<path d="M0.568 9V0.48H4.096C4.464 0.48 4.8 0.556 5.104 0.707999C5.416 0.859999 5.684 1.068 5.908 1.332C6.14 1.588 6.316 1.876 6.436 2.196C6.564 2.508 6.628 2.828 6.628 3.156C6.628 3.62 6.524 4.06 6.316 4.476C6.108 4.884 5.82 5.216 5.452 5.472C5.084 5.728 4.656 5.856 4.168 5.856H1.408V9H0.568ZM1.408 5.112H4.132C4.468 5.112 4.76 5.02 5.008 4.836C5.256 4.652 5.448 4.412 5.584 4.116C5.72 3.82 5.788 3.5 5.788 3.156C5.788 2.804 5.708 2.484 5.548 2.196C5.388 1.9 5.176 1.664 4.912 1.488C4.656 1.312 4.372 1.224 4.06 1.224H1.408V5.112ZM10.9848 3.468C10.4408 3.484 9.96084 3.636 9.54484 3.924C9.13684 4.212 8.84884 4.608 8.68084 5.112V9H7.86484V2.748H8.63284V4.248C8.84884 3.808 9.13284 3.452 9.48484 3.18C9.84484 2.908 10.2248 2.756 10.6248 2.724C10.7048 2.716 10.7728 2.712 10.8288 2.712C10.8848 2.712 10.9368 2.716 10.9848 2.724V3.468ZM14.5844 9.12C13.9844 9.12 13.4484 8.972 12.9764 8.676C12.5044 8.38 12.1324 7.984 11.8604 7.488C11.5884 6.992 11.4524 6.448 11.4524 5.856C11.4524 5.272 11.5844 4.736 11.8484 4.248C12.1204 3.76 12.4924 3.372 12.9644 3.084C13.4364 2.788 13.9724 2.64 14.5724 2.64C15.1884 2.64 15.7284 2.788 16.1924 3.084C16.6564 3.38 17.0164 3.772 17.2724 4.26C17.5364 4.74 17.6684 5.268 17.6684 5.844C17.6684 5.972 17.6644 6.08 17.6564 6.168H12.3044C12.3444 6.616 12.4724 7.016 12.6884 7.368C12.9044 7.712 13.1804 7.988 13.5164 8.196C13.8524 8.396 14.2204 8.496 14.6204 8.496C15.0284 8.496 15.4124 8.392 15.7724 8.184C16.1324 7.976 16.3884 7.704 16.5404 7.368L17.2484 7.56C17.1204 7.864 16.9204 8.136 16.6484 8.376C16.3844 8.608 16.0764 8.792 15.7244 8.928C15.3724 9.056 14.9924 9.12 14.5844 9.12ZM12.2804 5.58H16.9004C16.8684 5.132 16.7444 4.736 16.5284 4.392C16.3124 4.04 16.0364 3.768 15.7004 3.576C15.3644 3.376 14.9924 3.276 14.5844 3.276C14.1764 3.276 13.8044 3.376 13.4684 3.576C13.1324 3.768 12.8564 4.04 12.6404 4.392C12.4324 4.736 12.3124 5.132 12.2804 5.58ZM21.6393 9.12C21.0313 9.12 20.4913 8.972 20.0193 8.676C19.5473 8.372 19.1753 7.976 18.9033 7.488C18.6313 6.992 18.4953 6.448 18.4953 5.856C18.4953 5.264 18.6273 4.728 18.8913 4.248C19.1553 3.76 19.5233 3.372 19.9953 3.084C20.4673 2.788 21.0113 2.64 21.6273 2.64C22.2113 2.64 22.7233 2.776 23.1633 3.048C23.6113 3.312 23.9473 3.672 24.1713 4.128L23.3793 4.38C23.2033 4.06 22.9553 3.812 22.6353 3.636C22.3233 3.452 21.9753 3.36 21.5913 3.36C21.1673 3.36 20.7833 3.468 20.4393 3.684C20.1033 3.9 19.8313 4.2 19.6233 4.584C19.4233 4.96 19.3233 5.384 19.3233 5.856C19.3233 6.328 19.4273 6.756 19.6353 7.14C19.8433 7.524 20.1193 7.832 20.4633 8.064C20.8073 8.288 21.1873 8.4 21.6033 8.4C21.8753 8.4 22.1393 8.352 22.3953 8.256C22.6513 8.16 22.8713 8.032 23.0553 7.872C23.2393 7.704 23.3633 7.524 23.4273 7.332L24.2313 7.572C24.1193 7.868 23.9353 8.136 23.6793 8.376C23.4233 8.608 23.1193 8.792 22.7673 8.928C22.4153 9.056 22.0393 9.12 21.6393 9.12ZM25.5133 1.44V0.24H26.3293V1.44H25.5133ZM25.5133 9V2.748H26.3293V9H25.5133ZM30.7906 9.12C30.1906 9.12 29.6546 8.972 29.1826 8.676C28.7186 8.38 28.3546 7.988 28.0906 7.5C27.8266 7.004 27.6946 6.468 27.6946 5.892C27.6946 5.308 27.8266 4.772 28.0906 4.284C28.3626 3.788 28.7306 3.392 29.1946 3.096C29.6666 2.792 30.1986 2.64 30.7906 2.64C31.3906 2.64 31.9226 2.792 32.3866 3.096C32.8586 3.392 33.2266 3.788 33.4906 4.284C33.7626 4.772 33.8986 5.308 33.8986 5.892C33.8986 6.468 33.7666 7.004 33.5026 7.5C33.2386 7.988 32.8706 8.38 32.3986 8.676C31.9346 8.972 31.3986 9.12 30.7906 9.12ZM28.5226 5.904C28.5226 6.368 28.6226 6.792 28.8226 7.176C29.0306 7.552 29.3066 7.852 29.6506 8.076C29.9946 8.292 30.3746 8.4 30.7906 8.4C31.2066 8.4 31.5866 8.288 31.9306 8.064C32.2746 7.84 32.5506 7.536 32.7586 7.152C32.9666 6.768 33.0706 6.344 33.0706 5.88C33.0706 5.416 32.9666 4.992 32.7586 4.608C32.5506 4.224 32.2746 3.92 31.9306 3.696C31.5866 3.472 31.2066 3.36 30.7906 3.36C30.3826 3.36 30.0066 3.476 29.6626 3.708C29.3186 3.932 29.0426 4.236 28.8346 4.62C28.6266 5.004 28.5226 5.432 28.5226 5.904ZM37.9019 5.892C37.9019 5.3 38.0219 4.76 38.2619 4.272C38.5099 3.776 38.8499 3.38 39.2819 3.084C39.7139 2.788 40.2059 2.64 40.7579 2.64C41.2779 2.64 41.7419 2.78 42.1499 3.06C42.5659 3.332 42.8899 3.664 43.1219 4.056V0.24H43.9379V8.016C43.9379 8.232 44.0339 8.344 44.2259 8.352V9C44.0659 9.024 43.9419 9.032 43.8539 9.024C43.6779 9.016 43.5259 8.952 43.3979 8.832C43.2779 8.704 43.2179 8.56 43.2179 8.4V7.788C42.9699 8.196 42.6339 8.52 42.2099 8.76C41.7859 9 41.3459 9.12 40.8899 9.12C40.4579 9.12 40.0579 9.032 39.6899 8.856C39.3219 8.68 39.0019 8.44 38.7299 8.136C38.4659 7.832 38.2619 7.488 38.1179 7.104C37.9739 6.712 37.9019 6.308 37.9019 5.892ZM43.1219 6.852V4.92C43.0179 4.632 42.8499 4.372 42.6179 4.14C42.3859 3.9 42.1219 3.712 41.8259 3.576C41.5379 3.432 41.2499 3.36 40.9619 3.36C40.5139 3.36 40.1219 3.484 39.7859 3.732C39.4579 3.972 39.2019 4.288 39.0179 4.68C38.8339 5.064 38.7419 5.468 38.7419 5.892C38.7419 6.34 38.8419 6.756 39.0419 7.14C39.2499 7.524 39.5299 7.832 39.8819 8.064C40.2339 8.288 40.6299 8.4 41.0699 8.4C41.3419 8.4 41.6259 8.332 41.9219 8.196C42.2259 8.052 42.4899 7.864 42.7139 7.632C42.9459 7.4 43.0819 7.14 43.1219 6.852ZM48.4867 9.12C47.8867 9.12 47.3507 8.972 46.8787 8.676C46.4067 8.38 46.0347 7.984 45.7627 7.488C45.4907 6.992 45.3547 6.448 45.3547 5.856C45.3547 5.272 45.4867 4.736 45.7507 4.248C46.0227 3.76 46.3947 3.372 46.8667 3.084C47.3387 2.788 47.8747 2.64 48.4747 2.64C49.0907 2.64 49.6307 2.788 50.0947 3.084C50.5587 3.38 50.9187 3.772 51.1747 4.26C51.4387 4.74 51.5707 5.268 51.5707 5.844C51.5707 5.972 51.5667 6.08 51.5587 6.168H46.2067C46.2467 6.616 46.3747 7.016 46.5907 7.368C46.8067 7.712 47.0827 7.988 47.4187 8.196C47.7547 8.396 48.1227 8.496 48.5227 8.496C48.9307 8.496 49.3147 8.392 49.6747 8.184C50.0347 7.976 50.2907 7.704 50.4427 7.368L51.1507 7.56C51.0227 7.864 50.8227 8.136 50.5507 8.376C50.2867 8.608 49.9787 8.792 49.6267 8.928C49.2747 9.056 48.8947 9.12 48.4867 9.12ZM46.1827 5.58H50.8027C50.7707 5.132 50.6467 4.736 50.4307 4.392C50.2147 4.04 49.9387 3.768 49.6027 3.576C49.2667 3.376 48.8947 3.276 48.4867 3.276C48.0787 3.276 47.7067 3.376 47.3707 3.576C47.0347 3.768 46.7587 4.04 46.5427 4.392C46.3347 4.736 46.2147 5.132 46.1827 5.58ZM52.8657 0.24H53.6817V7.584C53.6817 7.896 53.7337 8.1 53.8377 8.196C53.9497 8.292 54.0897 8.34 54.2577 8.34C54.4017 8.34 54.5457 8.324 54.6897 8.292C54.8417 8.26 54.9657 8.228 55.0617 8.196L55.2057 8.856C55.0537 8.92 54.8657 8.972 54.6417 9.012C54.4257 9.052 54.2377 9.072 54.0777 9.072C53.7097 9.072 53.4137 8.964 53.1897 8.748C52.9737 8.532 52.8657 8.236 52.8657 7.86V0.24ZM61.9865 9.12C61.4665 9.12 60.9985 8.984 60.5825 8.712C60.1745 8.44 59.8505 8.104 59.6105 7.704V11.556H58.7945V2.748H59.5265V3.96C59.7745 3.568 60.1025 3.252 60.5105 3.012C60.9265 2.764 61.3745 2.64 61.8545 2.64C62.2865 2.64 62.6825 2.732 63.0425 2.916C63.4025 3.092 63.7145 3.332 63.9785 3.636C64.2505 3.94 64.4585 4.288 64.6025 4.68C64.7465 5.064 64.8185 5.464 64.8185 5.88C64.8185 6.464 64.6985 7.004 64.4585 7.5C64.2265 7.988 63.8945 8.38 63.4625 8.676C63.0385 8.972 62.5465 9.12 61.9865 9.12ZM61.7585 8.4C62.2145 8.4 62.6065 8.28 62.9345 8.04C63.2705 7.792 63.5305 7.476 63.7145 7.092C63.8985 6.708 63.9905 6.304 63.9905 5.88C63.9905 5.432 63.8865 5.016 63.6785 4.632C63.4705 4.248 63.1905 3.94 62.8385 3.708C62.4945 3.476 62.1025 3.36 61.6625 3.36C61.3905 3.36 61.1025 3.432 60.7985 3.576C60.5025 3.712 60.2385 3.9 60.0065 4.14C59.7825 4.372 59.6505 4.628 59.6105 4.908V6.828C59.7945 7.268 60.0825 7.64 60.4745 7.944C60.8665 8.248 61.2945 8.4 61.7585 8.4ZM69.3208 3.468C68.7768 3.484 68.2968 3.636 67.8808 3.924C67.4728 4.212 67.1848 4.608 67.0168 5.112V9H66.2008V2.748H66.9688V4.248C67.1848 3.808 67.4688 3.452 67.8208 3.18C68.1808 2.908 68.5608 2.756 68.9608 2.724C69.0408 2.716 69.1088 2.712 69.1648 2.712C69.2208 2.712 69.2728 2.716 69.3208 2.724V3.468ZM72.8843 9.12C72.2843 9.12 71.7483 8.972 71.2763 8.676C70.8123 8.38 70.4483 7.988 70.1843 7.5C69.9203 7.004 69.7883 6.468 69.7883 5.892C69.7883 5.308 69.9203 4.772 70.1843 4.284C70.4563 3.788 70.8243 3.392 71.2883 3.096C71.7603 2.792 72.2923 2.64 72.8843 2.64C73.4843 2.64 74.0163 2.792 74.4803 3.096C74.9523 3.392 75.3203 3.788 75.5843 4.284C75.8563 4.772 75.9923 5.308 75.9923 5.892C75.9923 6.468 75.8603 7.004 75.5963 7.5C75.3323 7.988 74.9643 8.38 74.4923 8.676C74.0283 8.972 73.4923 9.12 72.8843 9.12ZM70.6163 5.904C70.6163 6.368 70.7163 6.792 70.9163 7.176C71.1243 7.552 71.4003 7.852 71.7443 8.076C72.0883 8.292 72.4683 8.4 72.8843 8.4C73.3003 8.4 73.6803 8.288 74.0243 8.064C74.3683 7.84 74.6443 7.536 74.8523 7.152C75.0603 6.768 75.1643 6.344 75.1643 5.88C75.1643 5.416 75.0603 4.992 74.8523 4.608C74.6443 4.224 74.3683 3.92 74.0243 3.696C73.6803 3.472 73.3003 3.36 72.8843 3.36C72.4763 3.36 72.1003 3.476 71.7563 3.708C71.4123 3.932 71.1363 4.236 70.9283 4.62C70.7203 5.004 70.6163 5.432 70.6163 5.904ZM76.937 5.892C76.937 5.3 77.057 4.76 77.297 4.272C77.545 3.776 77.885 3.38 78.317 3.084C78.749 2.788 79.241 2.64 79.793 2.64C80.313 2.64 80.777 2.78 81.185 3.06C81.601 3.332 81.925 3.664 82.157 4.056V0.24H82.973V8.016C82.973 8.232 83.069 8.344 83.261 8.352V9C83.101 9.024 82.977 9.032 82.889 9.024C82.713 9.016 82.561 8.952 82.433 8.832C82.313 8.704 82.253 8.56 82.253 8.4V7.788C82.005 8.196 81.669 8.52 81.245 8.76C80.821 9 80.381 9.12 79.925 9.12C79.493 9.12 79.093 9.032 78.725 8.856C78.357 8.68 78.037 8.44 77.765 8.136C77.501 7.832 77.297 7.488 77.153 7.104C77.009 6.712 76.937 6.308 76.937 5.892ZM82.157 6.852V4.92C82.053 4.632 81.885 4.372 81.653 4.14C81.421 3.9 81.157 3.712 80.861 3.576C80.573 3.432 80.285 3.36 79.997 3.36C79.549 3.36 79.157 3.484 78.821 3.732C78.493 3.972 78.237 4.288 78.053 4.68C77.869 5.064 77.777 5.468 77.777 5.892C77.777 6.34 77.877 6.756 78.077 7.14C78.285 7.524 78.565 7.832 78.917 8.064C79.269 8.288 79.665 8.4 80.105 8.4C80.377 8.4 80.661 8.332 80.957 8.196C81.261 8.052 81.525 7.864 81.749 7.632C81.981 7.4 82.117 7.14 82.157 6.852ZM84.7619 6.42V2.748H85.5779V6.276C85.5779 7.692 86.0619 8.4 87.0299 8.4C87.5099 8.4 87.9579 8.244 88.3739 7.932C88.7979 7.62 89.1019 7.204 89.2859 6.684V2.748H90.1019V8.016C90.1019 8.232 90.1979 8.344 90.3899 8.352V9C90.2939 9.016 90.2179 9.024 90.1619 9.024C90.1139 9.024 90.0619 9.024 90.0059 9.024C89.8379 9.008 89.6939 8.944 89.5739 8.832C89.4619 8.72 89.4059 8.584 89.4059 8.424L89.3819 7.584C89.1099 8.072 88.7379 8.452 88.2659 8.724C87.8019 8.988 87.2979 9.12 86.7539 9.12C85.4259 9.12 84.7619 8.22 84.7619 6.42ZM94.9469 8.7C94.8509 8.74 94.6749 8.812 94.4189 8.916C94.1629 9.02 93.8669 9.072 93.5309 9.072C93.1789 9.072 92.8709 8.972 92.6069 8.772C92.3429 8.572 92.2109 8.272 92.2109 7.872V3.396H91.3469V2.748H92.2109V0.636H93.0269V2.748H94.4669V3.396H93.0269V7.644C93.0429 7.876 93.1229 8.048 93.2669 8.16C93.4189 8.264 93.5909 8.316 93.7829 8.316C94.0069 8.316 94.2069 8.28 94.3829 8.208C94.5669 8.128 94.6829 8.072 94.7309 8.04L94.9469 8.7ZM98.5729 9.12C97.9649 9.12 97.4249 8.972 96.9529 8.676C96.4809 8.372 96.1089 7.976 95.8369 7.488C95.5649 6.992 95.4289 6.448 95.4289 5.856C95.4289 5.264 95.5609 4.728 95.8249 4.248C96.0889 3.76 96.4569 3.372 96.9289 3.084C97.4009 2.788 97.9449 2.64 98.5609 2.64C99.1449 2.64 99.6569 2.776 100.097 3.048C100.545 3.312 100.881 3.672 101.105 4.128L100.313 4.38C100.137 4.06 99.8889 3.812 99.5689 3.636C99.2569 3.452 98.9089 3.36 98.5249 3.36C98.1009 3.36 97.7169 3.468 97.3729 3.684C97.0369 3.9 96.7649 4.2 96.5569 4.584C96.3569 4.96 96.2569 5.384 96.2569 5.856C96.2569 6.328 96.3609 6.756 96.5689 7.14C96.7769 7.524 97.0529 7.832 97.3969 8.064C97.7409 8.288 98.1209 8.4 98.5369 8.4C98.8089 8.4 99.0729 8.352 99.3289 8.256C99.5849 8.16 99.8049 8.032 99.9889 7.872C100.173 7.704 100.297 7.524 100.361 7.332L101.165 7.572C101.053 7.868 100.869 8.136 100.613 8.376C100.357 8.608 100.053 8.792 99.7009 8.928C99.3489 9.056 98.9729 9.12 98.5729 9.12ZM105.052 9.12C104.452 9.12 103.916 8.972 103.444 8.676C102.98 8.38 102.616 7.988 102.352 7.5C102.088 7.004 101.956 6.468 101.956 5.892C101.956 5.308 102.088 4.772 102.352 4.284C102.624 3.788 102.992 3.392 103.456 3.096C103.928 2.792 104.46 2.64 105.052 2.64C105.652 2.64 106.184 2.792 106.648 3.096C107.12 3.392 107.488 3.788 107.752 4.284C108.024 4.772 108.16 5.308 108.16 5.892C108.16 6.468 108.028 7.004 107.764 7.5C107.5 7.988 107.132 8.38 106.66 8.676C106.196 8.972 105.66 9.12 105.052 9.12ZM102.784 5.904C102.784 6.368 102.884 6.792 103.084 7.176C103.292 7.552 103.568 7.852 103.912 8.076C104.256 8.292 104.636 8.4 105.052 8.4C105.468 8.4 105.848 8.288 106.192 8.064C106.536 7.84 106.812 7.536 107.02 7.152C107.228 6.768 107.332 6.344 107.332 5.88C107.332 5.416 107.228 4.992 107.02 4.608C106.812 4.224 106.536 3.92 106.192 3.696C105.848 3.472 105.468 3.36 105.052 3.36C104.644 3.36 104.268 3.476 103.924 3.708C103.58 3.932 103.304 4.236 103.096 4.62C102.888 5.004 102.784 5.432 102.784 5.904Z" fill="#A2A2A2"/>
</svg>
