<svg width="109" height="12" viewBox="0 0 109 12" fill="none" xmlns="http://www.w3.org/2000/svg">
<path d="M0.568 9V0.48H4.096C4.464 0.48 4.8 0.556 5.104 0.707999C5.416 0.859999 5.684 1.068 5.908 1.332C6.132 1.588 6.308 1.876 6.436 2.196C6.564 2.508 6.628 2.828 6.628 3.156C6.628 3.62 6.524 4.06 6.316 4.476C6.116 4.884 5.832 5.216 5.464 5.472C5.096 5.728 4.664 5.856 4.168 5.856H1.408V9H0.568ZM1.408 5.112H4.132C4.468 5.112 4.76 5.02 5.008 4.836C5.256 4.652 5.448 4.412 5.584 4.116C5.72 3.82 5.788 3.5 5.788 3.156C5.788 2.804 5.708 2.48 5.548 2.184C5.388 1.888 5.176 1.656 4.912 1.488C4.656 1.312 4.372 1.224 4.06 1.224H1.408V5.112ZM10.9848 3.468C10.4408 3.484 9.96084 3.636 9.54484 3.924C9.13684 4.212 8.84884 4.608 8.68084 5.112V9H7.86484V2.748H8.63284V4.248C8.84884 3.808 9.13284 3.452 9.48484 3.18C9.84484 2.908 10.2248 2.756 10.6248 2.724C10.7048 2.716 10.7728 2.712 10.8288 2.712C10.8928 2.712 10.9448 2.716 10.9848 2.724V3.468ZM14.5727 9.12C14.1247 9.12 13.7087 9.036 13.3247 8.868C12.9407 8.692 12.6087 8.456 12.3287 8.16C12.0487 7.856 11.8287 7.508 11.6687 7.116C11.5167 6.724 11.4407 6.304 11.4407 5.856C11.4407 5.272 11.5727 4.736 11.8367 4.248C12.1087 3.76 12.4807 3.372 12.9527 3.084C13.4247 2.788 13.9607 2.64 14.5607 2.64C15.1767 2.64 15.7127 2.788 16.1687 3.084C16.6327 3.38 16.9967 3.772 17.2607 4.26C17.5247 4.74 17.6567 5.268 17.6567 5.844C17.6567 5.908 17.6567 5.972 17.6567 6.036C17.6567 6.092 17.6527 6.136 17.6447 6.168H12.2927C12.3327 6.616 12.4567 7.016 12.6647 7.368C12.8807 7.712 13.1567 7.988 13.4927 8.196C13.8367 8.396 14.2087 8.496 14.6087 8.496C15.0167 8.496 15.4007 8.392 15.7607 8.184C16.1287 7.976 16.3847 7.704 16.5287 7.368L17.2367 7.56C17.1087 7.856 16.9127 8.124 16.6487 8.364C16.3847 8.604 16.0727 8.792 15.7127 8.928C15.3607 9.056 14.9807 9.12 14.5727 9.12ZM12.2687 5.58H16.8887C16.8567 5.124 16.7327 4.724 16.5167 4.38C16.3087 4.036 16.0327 3.768 15.6887 3.576C15.3527 3.376 14.9807 3.276 14.5727 3.276C14.1647 3.276 13.7927 3.376 13.4567 3.576C13.1207 3.768 12.8447 4.04 12.6287 4.392C12.4207 4.736 12.3007 5.132 12.2687 5.58ZM21.6276 9.12C21.1716 9.12 20.7516 9.036 20.3676 8.868C19.9916 8.692 19.6596 8.452 19.3716 8.148C19.0916 7.844 18.8716 7.496 18.7116 7.104C18.5596 6.712 18.4836 6.296 18.4836 5.856C18.4836 5.264 18.6156 4.724 18.8796 4.236C19.1436 3.748 19.5116 3.36 19.9836 3.072C20.4556 2.784 20.9996 2.64 21.6156 2.64C22.1996 2.64 22.7156 2.776 23.1636 3.048C23.6116 3.312 23.9436 3.672 24.1596 4.128L23.3676 4.38C23.1916 4.06 22.9436 3.812 22.6236 3.636C22.3116 3.452 21.9636 3.36 21.5796 3.36C21.1636 3.36 20.7836 3.468 20.4396 3.684C20.0956 3.9 19.8196 4.196 19.6116 4.572C19.4116 4.948 19.3116 5.376 19.3116 5.856C19.3116 6.328 19.4156 6.756 19.6236 7.14C19.8316 7.524 20.1076 7.832 20.4516 8.064C20.7956 8.288 21.1756 8.4 21.5916 8.4C21.8636 8.4 22.1236 8.352 22.3716 8.256C22.6276 8.16 22.8476 8.032 23.0316 7.872C23.2236 7.704 23.3516 7.524 23.4156 7.332L24.2196 7.572C24.1076 7.868 23.9196 8.136 23.6556 8.376C23.3996 8.608 23.0956 8.792 22.7436 8.928C22.3996 9.056 22.0276 9.12 21.6276 9.12ZM25.5016 9V2.748H26.3176V9H25.5016ZM25.5016 1.44V0.24H26.3176V1.44H25.5016ZM30.7788 9.12C30.3308 9.12 29.9148 9.036 29.5308 8.868C29.1548 8.692 28.8268 8.456 28.5468 8.16C28.2748 7.856 28.0628 7.512 27.9108 7.128C27.7588 6.736 27.6828 6.324 27.6828 5.892C27.6828 5.444 27.7588 5.028 27.9108 4.644C28.0628 4.252 28.2788 3.908 28.5588 3.612C28.8388 3.308 29.1668 3.072 29.5428 2.904C29.9268 2.728 30.3428 2.64 30.7908 2.64C31.2388 2.64 31.6508 2.728 32.0268 2.904C32.4028 3.072 32.7308 3.308 33.0108 3.612C33.2908 3.908 33.5068 4.252 33.6588 4.644C33.8108 5.028 33.8868 5.444 33.8868 5.892C33.8868 6.324 33.8108 6.736 33.6588 7.128C33.5068 7.512 33.2908 7.856 33.0108 8.16C32.7388 8.456 32.4108 8.692 32.0268 8.868C31.6508 9.036 31.2348 9.12 30.7788 9.12ZM28.5108 5.904C28.5108 6.368 28.6108 6.792 28.8108 7.176C29.0188 7.552 29.2948 7.852 29.6388 8.076C29.9828 8.292 30.3628 8.4 30.7788 8.4C31.1948 8.4 31.5748 8.288 31.9188 8.064C32.2628 7.84 32.5388 7.536 32.7468 7.152C32.9548 6.76 33.0588 6.336 33.0588 5.88C33.0588 5.416 32.9548 4.992 32.7468 4.608C32.5388 4.224 32.2628 3.92 31.9188 3.696C31.5748 3.472 31.1948 3.36 30.7788 3.36C30.3628 3.36 29.9828 3.476 29.6388 3.708C29.3028 3.94 29.0308 4.248 28.8228 4.632C28.6148 5.008 28.5108 5.432 28.5108 5.904ZM37.8902 5.892C37.8902 5.3 38.0102 4.76 38.2502 4.272C38.4982 3.776 38.8382 3.38 39.2702 3.084C39.7022 2.788 40.1942 2.64 40.7462 2.64C41.2662 2.64 41.7302 2.78 42.1382 3.06C42.5542 3.332 42.8782 3.664 43.1102 4.056V0.24H43.9262V8.016C43.9262 8.128 43.9502 8.212 43.9982 8.268C44.0462 8.316 44.1182 8.344 44.2142 8.352V9C44.0542 9.024 43.9302 9.032 43.8422 9.024C43.6742 9.016 43.5262 8.948 43.3982 8.82C43.2702 8.692 43.2062 8.552 43.2062 8.4V7.788C42.9582 8.196 42.6222 8.52 42.1982 8.76C41.7742 9 41.3342 9.12 40.8782 9.12C40.4462 9.12 40.0462 9.032 39.6782 8.856C39.3182 8.68 39.0022 8.44 38.7302 8.136C38.4662 7.832 38.2582 7.488 38.1062 7.104C37.9622 6.712 37.8902 6.308 37.8902 5.892ZM43.1102 6.852V4.92C43.0062 4.632 42.8382 4.372 42.6062 4.14C42.3742 3.9 42.1102 3.712 41.8142 3.576C41.5262 3.432 41.2382 3.36 40.9502 3.36C40.6142 3.36 40.3102 3.432 40.0382 3.576C39.7662 3.712 39.5302 3.9 39.3302 4.14C39.1382 4.38 38.9902 4.652 38.8862 4.956C38.7822 5.26 38.7302 5.572 38.7302 5.892C38.7302 6.228 38.7862 6.548 38.8982 6.852C39.0182 7.156 39.1862 7.428 39.4022 7.668C39.6182 7.9 39.8662 8.08 40.1462 8.208C40.4262 8.336 40.7302 8.4 41.0582 8.4C41.2662 8.4 41.4822 8.36 41.7062 8.28C41.9302 8.2 42.1422 8.092 42.3422 7.956C42.5502 7.812 42.7222 7.644 42.8582 7.452C42.9942 7.26 43.0782 7.06 43.1102 6.852ZM48.475 9.12C48.027 9.12 47.611 9.036 47.227 8.868C46.843 8.692 46.511 8.456 46.231 8.16C45.951 7.856 45.731 7.508 45.571 7.116C45.419 6.724 45.343 6.304 45.343 5.856C45.343 5.272 45.475 4.736 45.739 4.248C46.011 3.76 46.383 3.372 46.855 3.084C47.327 2.788 47.863 2.64 48.463 2.64C49.079 2.64 49.615 2.788 50.071 3.084C50.535 3.38 50.899 3.772 51.163 4.26C51.427 4.74 51.559 5.268 51.559 5.844C51.559 5.908 51.559 5.972 51.559 6.036C51.559 6.092 51.555 6.136 51.547 6.168H46.195C46.235 6.616 46.359 7.016 46.567 7.368C46.783 7.712 47.059 7.988 47.395 8.196C47.739 8.396 48.111 8.496 48.511 8.496C48.919 8.496 49.303 8.392 49.663 8.184C50.031 7.976 50.287 7.704 50.431 7.368L51.139 7.56C51.011 7.856 50.815 8.124 50.551 8.364C50.287 8.604 49.975 8.792 49.615 8.928C49.263 9.056 48.883 9.12 48.475 9.12ZM46.171 5.58H50.791C50.759 5.124 50.635 4.724 50.419 4.38C50.211 4.036 49.935 3.768 49.591 3.576C49.255 3.376 48.883 3.276 48.475 3.276C48.067 3.276 47.695 3.376 47.359 3.576C47.023 3.768 46.747 4.04 46.531 4.392C46.323 4.736 46.203 5.132 46.171 5.58ZM52.854 0.24H53.67V7.584C53.67 7.896 53.726 8.1 53.838 8.196C53.95 8.292 54.086 8.34 54.246 8.34C54.39 8.34 54.534 8.324 54.678 8.292C54.822 8.26 54.946 8.228 55.05 8.196L55.194 8.856C55.042 8.92 54.854 8.972 54.63 9.012C54.414 9.052 54.226 9.072 54.066 9.072C53.698 9.072 53.402 8.964 53.178 8.748C52.962 8.532 52.854 8.236 52.854 7.86V0.24ZM61.9748 9.12C61.4548 9.12 60.9868 8.984 60.5708 8.712C60.1628 8.44 59.8388 8.104 59.5988 7.704V11.556H58.7828V2.748H59.5148V3.96C59.7628 3.568 60.0948 3.252 60.5108 3.012C60.9268 2.764 61.3708 2.64 61.8428 2.64C62.2748 2.64 62.6708 2.732 63.0308 2.916C63.3908 3.092 63.7028 3.332 63.9668 3.636C64.2308 3.94 64.4348 4.288 64.5788 4.68C64.7308 5.064 64.8068 5.464 64.8068 5.88C64.8068 6.464 64.6868 7.004 64.4468 7.5C64.2148 7.988 63.8868 8.38 63.4628 8.676C63.0388 8.972 62.5428 9.12 61.9748 9.12ZM61.7468 8.4C62.0908 8.4 62.3988 8.332 62.6708 8.196C62.9428 8.052 63.1748 7.86 63.3668 7.62C63.5668 7.38 63.7188 7.112 63.8228 6.816C63.9268 6.512 63.9788 6.2 63.9788 5.88C63.9788 5.544 63.9188 5.224 63.7988 4.92C63.6868 4.616 63.5228 4.348 63.3068 4.116C63.0908 3.884 62.8428 3.7 62.5628 3.564C62.2828 3.428 61.9788 3.36 61.6508 3.36C61.4428 3.36 61.2268 3.4 61.0028 3.48C60.7788 3.56 60.5628 3.676 60.3548 3.828C60.1548 3.972 59.9868 4.136 59.8508 4.32C59.7148 4.504 59.6308 4.7 59.5988 4.908V6.828C59.7268 7.124 59.8988 7.392 60.1148 7.632C60.3308 7.864 60.5788 8.052 60.8588 8.196C61.1468 8.332 61.4428 8.4 61.7468 8.4ZM69.3091 3.468C68.7651 3.484 68.2851 3.636 67.8691 3.924C67.4611 4.212 67.1731 4.608 67.0051 5.112V9H66.1891V2.748H66.9571V4.248C67.1731 3.808 67.4571 3.452 67.8091 3.18C68.1691 2.908 68.5491 2.756 68.9491 2.724C69.0291 2.716 69.0971 2.712 69.1531 2.712C69.2171 2.712 69.2691 2.716 69.3091 2.724V3.468ZM72.8609 9.12C72.4129 9.12 71.9969 9.036 71.6129 8.868C71.2369 8.692 70.9089 8.456 70.6289 8.16C70.3569 7.856 70.1449 7.512 69.9929 7.128C69.8409 6.736 69.7649 6.324 69.7649 5.892C69.7649 5.444 69.8409 5.028 69.9929 4.644C70.1449 4.252 70.3609 3.908 70.6409 3.612C70.9209 3.308 71.2489 3.072 71.6249 2.904C72.0089 2.728 72.4249 2.64 72.8729 2.64C73.3209 2.64 73.7329 2.728 74.1089 2.904C74.4849 3.072 74.8129 3.308 75.0929 3.612C75.3729 3.908 75.5889 4.252 75.7409 4.644C75.8929 5.028 75.9689 5.444 75.9689 5.892C75.9689 6.324 75.8929 6.736 75.7409 7.128C75.5889 7.512 75.3729 7.856 75.0929 8.16C74.8209 8.456 74.4929 8.692 74.1089 8.868C73.7329 9.036 73.3169 9.12 72.8609 9.12ZM70.5929 5.904C70.5929 6.368 70.6929 6.792 70.8929 7.176C71.1009 7.552 71.3769 7.852 71.7209 8.076C72.0649 8.292 72.4449 8.4 72.8609 8.4C73.2769 8.4 73.6569 8.288 74.0009 8.064C74.3449 7.84 74.6209 7.536 74.8289 7.152C75.0369 6.76 75.1409 6.336 75.1409 5.88C75.1409 5.416 75.0369 4.992 74.8289 4.608C74.6209 4.224 74.3449 3.92 74.0009 3.696C73.6569 3.472 73.2769 3.36 72.8609 3.36C72.4449 3.36 72.0649 3.476 71.7209 3.708C71.3849 3.94 71.1129 4.248 70.9049 4.632C70.6969 5.008 70.5929 5.432 70.5929 5.904ZM76.9136 5.892C76.9136 5.3 77.0336 4.76 77.2736 4.272C77.5216 3.776 77.8616 3.38 78.2936 3.084C78.7256 2.788 79.2176 2.64 79.7696 2.64C80.2896 2.64 80.7536 2.78 81.1616 3.06C81.5776 3.332 81.9016 3.664 82.1336 4.056V0.24H82.9496V8.016C82.9496 8.128 82.9736 8.212 83.0216 8.268C83.0696 8.316 83.1416 8.344 83.2376 8.352V9C83.0776 9.024 82.9536 9.032 82.8656 9.024C82.6976 9.016 82.5496 8.948 82.4216 8.82C82.2936 8.692 82.2296 8.552 82.2296 8.4V7.788C81.9816 8.196 81.6456 8.52 81.2216 8.76C80.7976 9 80.3576 9.12 79.9016 9.12C79.4696 9.12 79.0696 9.032 78.7016 8.856C78.3416 8.68 78.0256 8.44 77.7536 8.136C77.4896 7.832 77.2816 7.488 77.1296 7.104C76.9856 6.712 76.9136 6.308 76.9136 5.892ZM82.1336 6.852V4.92C82.0296 4.632 81.8616 4.372 81.6296 4.14C81.3976 3.9 81.1336 3.712 80.8376 3.576C80.5496 3.432 80.2616 3.36 79.9736 3.36C79.6376 3.36 79.3336 3.432 79.0616 3.576C78.7896 3.712 78.5536 3.9 78.3536 4.14C78.1616 4.38 78.0136 4.652 77.9096 4.956C77.8056 5.26 77.7536 5.572 77.7536 5.892C77.7536 6.228 77.8096 6.548 77.9216 6.852C78.0416 7.156 78.2096 7.428 78.4256 7.668C78.6416 7.9 78.8896 8.08 79.1696 8.208C79.4496 8.336 79.7536 8.4 80.0816 8.4C80.2896 8.4 80.5056 8.36 80.7296 8.28C80.9536 8.2 81.1656 8.092 81.3656 7.956C81.5736 7.812 81.7456 7.644 81.8816 7.452C82.0176 7.26 82.1016 7.06 82.1336 6.852ZM84.7384 6.42V2.748H85.5544V6.276C85.5544 6.988 85.6744 7.52 85.9144 7.872C86.1624 8.224 86.5264 8.4 87.0064 8.4C87.3264 8.4 87.6344 8.332 87.9304 8.196C88.2344 8.052 88.5024 7.852 88.7344 7.596C88.9664 7.332 89.1424 7.028 89.2624 6.684V2.748H90.0784V8.016C90.0784 8.128 90.1024 8.212 90.1504 8.268C90.1984 8.316 90.2704 8.344 90.3664 8.352V9C90.2704 9.008 90.1944 9.012 90.1384 9.012C90.0824 9.02 90.0304 9.024 89.9824 9.024C89.8224 9.008 89.6824 8.944 89.5624 8.832C89.4504 8.72 89.3904 8.584 89.3824 8.424L89.3584 7.584C89.0864 8.064 88.7144 8.44 88.2424 8.712C87.7784 8.984 87.2744 9.12 86.7304 9.12C86.0744 9.12 85.5784 8.892 85.2424 8.436C84.9064 7.98 84.7384 7.308 84.7384 6.42ZM94.6354 9.12C94.1794 9.12 93.7594 9.036 93.3754 8.868C92.9994 8.692 92.6674 8.452 92.3794 8.148C92.0994 7.844 91.8794 7.496 91.7194 7.104C91.5674 6.712 91.4914 6.296 91.4914 5.856C91.4914 5.264 91.6234 4.724 91.8874 4.236C92.1514 3.748 92.5194 3.36 92.9914 3.072C93.4634 2.784 94.0074 2.64 94.6234 2.64C95.2074 2.64 95.7234 2.776 96.1714 3.048C96.6194 3.312 96.9514 3.672 97.1674 4.128L96.3754 4.38C96.1994 4.06 95.9514 3.812 95.6314 3.636C95.3194 3.452 94.9714 3.36 94.5874 3.36C94.1714 3.36 93.7914 3.468 93.4474 3.684C93.1034 3.9 92.8274 4.196 92.6194 4.572C92.4194 4.948 92.3194 5.376 92.3194 5.856C92.3194 6.328 92.4234 6.756 92.6314 7.14C92.8394 7.524 93.1154 7.832 93.4594 8.064C93.8034 8.288 94.1834 8.4 94.5994 8.4C94.8714 8.4 95.1314 8.352 95.3794 8.256C95.6354 8.16 95.8554 8.032 96.0394 7.872C96.2314 7.704 96.3594 7.524 96.4234 7.332L97.2274 7.572C97.1154 7.868 96.9274 8.136 96.6634 8.376C96.4074 8.608 96.1034 8.792 95.7514 8.928C95.4074 9.056 95.0354 9.12 94.6354 9.12ZM101.509 8.7C101.445 8.724 101.345 8.768 101.209 8.832C101.073 8.896 100.909 8.952 100.717 9C100.525 9.048 100.317 9.072 100.093 9.072C99.8614 9.072 99.6414 9.028 99.4334 8.94C99.2334 8.852 99.0734 8.72 98.9534 8.544C98.8334 8.36 98.7734 8.136 98.7734 7.872V3.396H97.9094V2.748H98.7734V0.636H99.5894V2.748H101.029V3.396H99.5894V7.644C99.6054 7.868 99.6854 8.036 99.8294 8.148C99.9814 8.26 100.153 8.316 100.345 8.316C100.569 8.316 100.773 8.28 100.957 8.208C101.141 8.128 101.253 8.072 101.293 8.04L101.509 8.7ZM105.087 9.12C104.639 9.12 104.223 9.036 103.839 8.868C103.463 8.692 103.135 8.456 102.855 8.16C102.583 7.856 102.371 7.512 102.219 7.128C102.067 6.736 101.991 6.324 101.991 5.892C101.991 5.444 102.067 5.028 102.219 4.644C102.371 4.252 102.587 3.908 102.867 3.612C103.147 3.308 103.475 3.072 103.851 2.904C104.235 2.728 104.651 2.64 105.099 2.64C105.547 2.64 105.959 2.728 106.335 2.904C106.711 3.072 107.039 3.308 107.319 3.612C107.599 3.908 107.815 4.252 107.967 4.644C108.119 5.028 108.195 5.444 108.195 5.892C108.195 6.324 108.119 6.736 107.967 7.128C107.815 7.512 107.599 7.856 107.319 8.16C107.047 8.456 106.719 8.692 106.335 8.868C105.959 9.036 105.543 9.12 105.087 9.12ZM102.819 5.904C102.819 6.368 102.919 6.792 103.119 7.176C103.327 7.552 103.603 7.852 103.947 8.076C104.291 8.292 104.671 8.4 105.087 8.4C105.503 8.4 105.883 8.288 106.227 8.064C106.571 7.84 106.847 7.536 107.055 7.152C107.263 6.76 107.367 6.336 107.367 5.88C107.367 5.416 107.263 4.992 107.055 4.608C106.847 4.224 106.571 3.92 106.227 3.696C105.883 3.472 105.503 3.36 105.087 3.36C104.671 3.36 104.291 3.476 103.947 3.708C103.611 3.94 103.339 4.248 103.131 4.632C102.923 5.008 102.819 5.432 102.819 5.904Z" fill="#A2A2A2"/>
</svg>
