<svg width="53" height="12" viewBox="0 0 53 12" fill="none" xmlns="http://www.w3.org/2000/svg">
<path d="M0.00400004 4.68C0.00400004 4.16 0.092 3.652 0.268 3.156C0.452 2.652 0.716 2.196 1.06 1.788C1.404 1.372 1.828 1.044 2.332 0.804C2.836 0.556 3.408 0.431999 4.048 0.431999C4.808 0.431999 5.456 0.608 5.992 0.96C6.536 1.304 6.936 1.748 7.192 2.292L6.532 2.7C6.348 2.324 6.116 2.028 5.836 1.812C5.556 1.588 5.256 1.428 4.936 1.332C4.624 1.236 4.312 1.188 4 1.188C3.488 1.188 3.036 1.292 2.644 1.5C2.252 1.7 1.92 1.972 1.648 2.316C1.384 2.652 1.184 3.032 1.048 3.456C0.912 3.872 0.844 4.296 0.844 4.728C0.844 5.2 0.924 5.652 1.084 6.084C1.244 6.516 1.468 6.9 1.756 7.236C2.044 7.564 2.38 7.828 2.764 8.028C3.156 8.22 3.58 8.316 4.036 8.316C4.356 8.316 4.684 8.26 5.02 8.148C5.356 8.036 5.668 7.864 5.956 7.632C6.252 7.4 6.488 7.1 6.664 6.732L7.36 7.092C7.184 7.516 6.912 7.876 6.544 8.172C6.176 8.468 5.764 8.692 5.308 8.844C4.86 8.996 4.42 9.072 3.988 9.072C3.404 9.072 2.868 8.948 2.38 8.7C1.892 8.444 1.468 8.108 1.108 7.692C0.756 7.268 0.484 6.796 0.292 6.276C0.1 5.748 0.00400004 5.216 0.00400004 4.68ZM8.12256 7.2C8.12256 6.808 8.23456 6.472 8.45856 6.192C8.68256 5.904 8.99056 5.684 9.38256 5.532C9.78256 5.372 10.2426 5.292 10.7626 5.292C11.0666 5.292 11.3826 5.316 11.7106 5.364C12.0386 5.412 12.3306 5.484 12.5866 5.58V5.052C12.5866 4.524 12.4306 4.104 12.1186 3.792C11.8066 3.48 11.3746 3.324 10.8226 3.324C10.4866 3.324 10.1546 3.388 9.82656 3.516C9.50656 3.636 9.17056 3.816 8.81856 4.056L8.50656 3.48C8.91456 3.2 9.31456 2.992 9.70656 2.856C10.0986 2.712 10.4986 2.64 10.9066 2.64C11.6746 2.64 12.2826 2.86 12.7306 3.3C13.1786 3.74 13.4026 4.348 13.4026 5.124V8.016C13.4026 8.128 13.4266 8.212 13.4746 8.268C13.5226 8.316 13.5986 8.344 13.7026 8.352V9C13.6146 9.008 13.5386 9.016 13.4746 9.024C13.4106 9.032 13.3626 9.032 13.3306 9.024C13.1306 9.016 12.9786 8.952 12.8746 8.832C12.7706 8.712 12.7146 8.584 12.7066 8.448L12.6946 7.992C12.4146 8.352 12.0506 8.632 11.6026 8.832C11.1546 9.024 10.6986 9.12 10.2346 9.12C9.83456 9.12 9.47056 9.036 9.14256 8.868C8.82256 8.692 8.57056 8.46 8.38656 8.172C8.21056 7.876 8.12256 7.552 8.12256 7.2ZM12.3106 7.68C12.3986 7.568 12.4666 7.46 12.5146 7.356C12.5626 7.252 12.5866 7.16 12.5866 7.08V6.168C12.3146 6.064 12.0306 5.984 11.7346 5.928C11.4466 5.872 11.1546 5.844 10.8586 5.844C10.2746 5.844 9.80256 5.96 9.44256 6.192C9.08256 6.424 8.90256 6.74 8.90256 7.14C8.90256 7.372 8.96256 7.592 9.08256 7.8C9.20256 8 9.37856 8.168 9.61056 8.304C9.84256 8.432 10.1146 8.496 10.4266 8.496C10.8186 8.496 11.1826 8.42 11.5186 8.268C11.8626 8.116 12.1266 7.92 12.3106 7.68ZM18.1188 8.7C18.0548 8.724 17.9548 8.768 17.8188 8.832C17.6828 8.896 17.5188 8.952 17.3268 9C17.1348 9.048 16.9268 9.072 16.7028 9.072C16.4708 9.072 16.2508 9.028 16.0428 8.94C15.8428 8.852 15.6828 8.72 15.5628 8.544C15.4428 8.36 15.3828 8.136 15.3828 7.872V3.396H14.5188V2.748H15.3828V0.636H16.1988V2.748H17.6388V3.396H16.1988V7.644C16.2148 7.868 16.2948 8.036 16.4388 8.148C16.5908 8.26 16.7628 8.316 16.9548 8.316C17.1788 8.316 17.3828 8.28 17.5668 8.208C17.7508 8.128 17.8628 8.072 17.9028 8.04L18.1188 8.7ZM21.7328 9.12C21.2848 9.12 20.8688 9.036 20.4848 8.868C20.1008 8.692 19.7688 8.456 19.4888 8.16C19.2088 7.856 18.9888 7.508 18.8288 7.116C18.6768 6.724 18.6008 6.304 18.6008 5.856C18.6008 5.272 18.7328 4.736 18.9968 4.248C19.2688 3.76 19.6408 3.372 20.1128 3.084C20.5848 2.788 21.1208 2.64 21.7208 2.64C22.3368 2.64 22.8728 2.788 23.3288 3.084C23.7928 3.38 24.1568 3.772 24.4208 4.26C24.6848 4.74 24.8168 5.268 24.8168 5.844C24.8168 5.908 24.8168 5.972 24.8168 6.036C24.8168 6.092 24.8128 6.136 24.8048 6.168H19.4528C19.4928 6.616 19.6168 7.016 19.8248 7.368C20.0408 7.712 20.3168 7.988 20.6528 8.196C20.9968 8.396 21.3688 8.496 21.7688 8.496C22.1768 8.496 22.5608 8.392 22.9208 8.184C23.2888 7.976 23.5448 7.704 23.6888 7.368L24.3968 7.56C24.2688 7.856 24.0728 8.124 23.8088 8.364C23.5448 8.604 23.2328 8.792 22.8728 8.928C22.5208 9.056 22.1408 9.12 21.7328 9.12ZM19.4288 5.58H24.0488C24.0168 5.124 23.8928 4.724 23.6768 4.38C23.4688 4.036 23.1928 3.768 22.8488 3.576C22.5128 3.376 22.1408 3.276 21.7328 3.276C21.3248 3.276 20.9528 3.376 20.6168 3.576C20.2808 3.768 20.0048 4.04 19.7888 4.392C19.5808 4.736 19.4608 5.132 19.4288 5.58ZM28.5838 9.084C28.1598 9.084 27.7678 8.996 27.4078 8.82C27.0478 8.644 26.7358 8.408 26.4718 8.112C26.2158 7.808 26.0158 7.464 25.8718 7.08C25.7278 6.696 25.6558 6.3 25.6558 5.892C25.6558 5.452 25.7238 5.04 25.8598 4.656C26.0038 4.264 26.2038 3.916 26.4598 3.612C26.7238 3.308 27.0318 3.072 27.3838 2.904C27.7358 2.728 28.1278 2.64 28.5598 2.64C29.0958 2.64 29.5598 2.776 29.9518 3.048C30.3518 3.32 30.6878 3.656 30.9598 4.056V2.748H31.6918V9.024C31.6918 9.6 31.5518 10.084 31.2718 10.476C30.9998 10.876 30.6278 11.176 30.1558 11.376C29.6918 11.576 29.1838 11.676 28.6318 11.676C27.9198 11.676 27.3438 11.548 26.9038 11.292C26.4638 11.036 26.1038 10.692 25.8238 10.26L26.3278 9.864C26.5758 10.256 26.9038 10.548 27.3118 10.74C27.7278 10.932 28.1678 11.028 28.6318 11.028C29.0398 11.028 29.4118 10.952 29.7478 10.8C30.0918 10.656 30.3638 10.436 30.5638 10.14C30.7718 9.844 30.8758 9.472 30.8758 9.024V7.788C30.6358 8.18 30.3078 8.496 29.8918 8.736C29.4758 8.968 29.0398 9.084 28.5838 9.084ZM28.8118 8.4C29.0598 8.4 29.2958 8.356 29.5198 8.268C29.7518 8.18 29.9638 8.064 30.1558 7.92C30.3478 7.768 30.5078 7.6 30.6358 7.416C30.7638 7.232 30.8438 7.044 30.8758 6.852V4.92C30.7558 4.616 30.5838 4.348 30.3598 4.116C30.1358 3.876 29.8798 3.692 29.5918 3.564C29.3118 3.428 29.0198 3.36 28.7158 3.36C28.3638 3.36 28.0478 3.436 27.7678 3.588C27.4958 3.732 27.2638 3.928 27.0718 4.176C26.8878 4.416 26.7438 4.688 26.6398 4.992C26.5358 5.296 26.4838 5.6 26.4838 5.904C26.4838 6.24 26.5438 6.56 26.6638 6.864C26.7838 7.16 26.9478 7.428 27.1558 7.668C27.3718 7.9 27.6198 8.08 27.8998 8.208C28.1878 8.336 28.4918 8.4 28.8118 8.4ZM36.1578 9.12C35.7098 9.12 35.2938 9.036 34.9098 8.868C34.5338 8.692 34.2058 8.456 33.9258 8.16C33.6538 7.856 33.4418 7.512 33.2898 7.128C33.1378 6.736 33.0618 6.324 33.0618 5.892C33.0618 5.444 33.1378 5.028 33.2898 4.644C33.4418 4.252 33.6578 3.908 33.9378 3.612C34.2178 3.308 34.5458 3.072 34.9218 2.904C35.3058 2.728 35.7218 2.64 36.1698 2.64C36.6178 2.64 37.0298 2.728 37.4058 2.904C37.7818 3.072 38.1098 3.308 38.3898 3.612C38.6698 3.908 38.8858 4.252 39.0378 4.644C39.1898 5.028 39.2658 5.444 39.2658 5.892C39.2658 6.324 39.1898 6.736 39.0378 7.128C38.8858 7.512 38.6698 7.856 38.3898 8.16C38.1178 8.456 37.7898 8.692 37.4058 8.868C37.0298 9.036 36.6138 9.12 36.1578 9.12ZM33.8898 5.904C33.8898 6.368 33.9898 6.792 34.1898 7.176C34.3978 7.552 34.6738 7.852 35.0178 8.076C35.3618 8.292 35.7418 8.4 36.1578 8.4C36.5738 8.4 36.9538 8.288 37.2978 8.064C37.6418 7.84 37.9178 7.536 38.1258 7.152C38.3338 6.76 38.4378 6.336 38.4378 5.88C38.4378 5.416 38.3338 4.992 38.1258 4.608C37.9178 4.224 37.6418 3.92 37.2978 3.696C36.9538 3.472 36.5738 3.36 36.1578 3.36C35.7418 3.36 35.3618 3.476 35.0178 3.708C34.6818 3.94 34.4098 4.248 34.2018 4.632C33.9938 5.008 33.8898 5.432 33.8898 5.904ZM43.7505 3.468C43.2065 3.484 42.7265 3.636 42.3105 3.924C41.9025 4.212 41.6145 4.608 41.4465 5.112V9H40.6305V2.748H41.3985V4.248C41.6145 3.808 41.8985 3.452 42.2505 3.18C42.6105 2.908 42.9905 2.756 43.3905 2.724C43.4705 2.716 43.5385 2.712 43.5945 2.712C43.6585 2.712 43.7105 2.716 43.7505 2.724V3.468ZM44.8375 9V2.748H45.6535V9H44.8375ZM45.5215 1.56L44.9815 1.356L45.6895 0.24H46.5535L45.5215 1.56ZM46.9468 7.2C46.9468 6.808 47.0588 6.472 47.2828 6.192C47.5068 5.904 47.8148 5.684 48.2068 5.532C48.6068 5.372 49.0668 5.292 49.5868 5.292C49.8908 5.292 50.2068 5.316 50.5348 5.364C50.8628 5.412 51.1548 5.484 51.4108 5.58V5.052C51.4108 4.524 51.2548 4.104 50.9428 3.792C50.6308 3.48 50.1988 3.324 49.6468 3.324C49.3108 3.324 48.9788 3.388 48.6508 3.516C48.3308 3.636 47.9948 3.816 47.6428 4.056L47.3308 3.48C47.7388 3.2 48.1388 2.992 48.5308 2.856C48.9228 2.712 49.3228 2.64 49.7308 2.64C50.4988 2.64 51.1068 2.86 51.5548 3.3C52.0028 3.74 52.2268 4.348 52.2268 5.124V8.016C52.2268 8.128 52.2508 8.212 52.2988 8.268C52.3468 8.316 52.4228 8.344 52.5268 8.352V9C52.4388 9.008 52.3628 9.016 52.2988 9.024C52.2348 9.032 52.1868 9.032 52.1548 9.024C51.9548 9.016 51.8028 8.952 51.6988 8.832C51.5948 8.712 51.5388 8.584 51.5308 8.448L51.5188 7.992C51.2388 8.352 50.8748 8.632 50.4268 8.832C49.9788 9.024 49.5228 9.12 49.0588 9.12C48.6588 9.12 48.2948 9.036 47.9668 8.868C47.6468 8.692 47.3948 8.46 47.2108 8.172C47.0348 7.876 46.9468 7.552 46.9468 7.2ZM51.1348 7.68C51.2228 7.568 51.2908 7.46 51.3388 7.356C51.3868 7.252 51.4108 7.16 51.4108 7.08V6.168C51.1388 6.064 50.8548 5.984 50.5588 5.928C50.2708 5.872 49.9788 5.844 49.6828 5.844C49.0988 5.844 48.6268 5.96 48.2668 6.192C47.9068 6.424 47.7268 6.74 47.7268 7.14C47.7268 7.372 47.7868 7.592 47.9068 7.8C48.0268 8 48.2028 8.168 48.4348 8.304C48.6668 8.432 48.9388 8.496 49.2508 8.496C49.6428 8.496 50.0068 8.42 50.3428 8.268C50.6868 8.116 50.9508 7.92 51.1348 7.68Z" fill="#A2A2A2"/>
</svg>
