<svg width="186" height="16" viewBox="0 0 186 16" fill="none" xmlns="http://www.w3.org/2000/svg">
<path d="M0.924 12V0.639999H4.78C5.98533 0.639999 6.988 0.895999 7.788 1.408C8.59867 1.90933 9.20667 2.592 9.612 3.456C10.0173 4.30933 10.22 5.25867 10.22 6.304C10.22 7.456 9.996 8.45867 9.548 9.312C9.1 10.1653 8.47067 10.8267 7.66 11.296C6.84933 11.7653 5.88933 12 4.78 12H0.924ZM9.1 6.304C9.1 5.39733 8.92933 4.592 8.588 3.888C8.25733 3.184 7.76667 2.63467 7.116 2.24C6.476 1.83467 5.69733 1.632 4.78 1.632H2.044V11.008H4.78C5.71867 11.008 6.508 10.8 7.148 10.384C7.788 9.968 8.27333 9.408 8.604 8.704C8.93467 8 9.1 7.2 9.1 6.304ZM15.7375 12.16C14.9375 12.16 14.2228 11.9627 13.5935 11.568C12.9642 11.1733 12.4682 10.6453 12.1055 9.984C11.7428 9.32267 11.5615 8.59733 11.5615 7.808C11.5615 7.02933 11.7375 6.31467 12.0895 5.664C12.4522 5.01333 12.9482 4.496 13.5775 4.112C14.2068 3.71733 14.9215 3.52 15.7215 3.52C16.5428 3.52 17.2628 3.71733 17.8815 4.112C18.5002 4.50667 18.9802 5.02933 19.3215 5.68C19.6735 6.32 19.8495 7.024 19.8495 7.792C19.8495 7.96267 19.8442 8.10667 19.8335 8.224H12.6975C12.7508 8.82133 12.9215 9.35467 13.2095 9.824C13.4975 10.2827 13.8655 10.6507 14.3135 10.928C14.7615 11.1947 15.2522 11.328 15.7855 11.328C16.3295 11.328 16.8415 11.1893 17.3215 10.912C17.8015 10.6347 18.1428 10.272 18.3455 9.824L19.2895 10.08C19.1188 10.4853 18.8522 10.848 18.4895 11.168C18.1375 11.4773 17.7268 11.7227 17.2575 11.904C16.7882 12.0747 16.2815 12.16 15.7375 12.16ZM12.6655 7.44H18.8255C18.7828 6.84267 18.6175 6.31467 18.3295 5.856C18.0415 5.38667 17.6735 5.024 17.2255 4.768C16.7775 4.50133 16.2815 4.368 15.7375 4.368C15.1935 4.368 14.6975 4.50133 14.2495 4.768C13.8015 5.024 13.4335 5.38667 13.1455 5.856C12.8682 6.31467 12.7082 6.84267 12.6655 7.44ZM24.2641 12.16C23.5815 12.16 22.9468 12.048 22.3601 11.824C21.7841 11.5893 21.2775 11.248 20.8401 10.8L21.2881 10.032C21.7575 10.4693 22.2268 10.7893 22.6961 10.992C23.1761 11.184 23.6828 11.28 24.2161 11.28C24.8561 11.28 25.3788 11.152 25.7841 10.896C26.2001 10.6293 26.4081 10.2507 26.4081 9.76C26.4081 9.42933 26.3068 9.17867 26.1041 9.008C25.9121 8.82667 25.6295 8.68267 25.2561 8.576C24.8935 8.46933 24.4561 8.34667 23.9441 8.208C23.3681 8.048 22.8828 7.88267 22.4881 7.712C22.1041 7.53067 21.8108 7.30667 21.6081 7.04C21.4161 6.76267 21.3201 6.40533 21.3201 5.968C21.3201 5.43467 21.4535 4.98667 21.7201 4.624C21.9975 4.26133 22.3708 3.98933 22.8401 3.808C23.3201 3.616 23.8535 3.52 24.4401 3.52C25.0801 3.52 25.6455 3.62133 26.1361 3.824C26.6268 4.02667 27.0268 4.30933 27.3361 4.672L26.8081 5.408C26.5201 5.06667 26.1628 4.816 25.7361 4.656C25.3201 4.48533 24.8668 4.4 24.3761 4.4C24.0348 4.4 23.7095 4.448 23.4001 4.544C23.0908 4.62933 22.8348 4.77867 22.6321 4.992C22.4401 5.19467 22.3441 5.47733 22.3441 5.84C22.3441 6.288 22.5095 6.59733 22.8401 6.768C23.1708 6.93867 23.6721 7.12 24.3441 7.312C24.9735 7.48267 25.5228 7.65333 25.9921 7.824C26.4615 7.99467 26.8241 8.224 27.0801 8.512C27.3361 8.78933 27.4641 9.17867 27.4641 9.68C27.4641 10.4587 27.1708 11.0667 26.5841 11.504C25.9975 11.9413 25.2241 12.16 24.2641 12.16ZM32.8785 12.16C32.0678 12.16 31.3478 11.9627 30.7185 11.568C30.0892 11.1627 29.5932 10.6347 29.2305 9.984C28.8678 9.32267 28.6865 8.59733 28.6865 7.808C28.6865 7.01867 28.8625 6.304 29.2145 5.664C29.5665 5.01333 30.0572 4.496 30.6865 4.112C31.3158 3.71733 32.0412 3.52 32.8625 3.52C33.6412 3.52 34.3238 3.70133 34.9105 4.064C35.5078 4.416 35.9558 4.896 36.2545 5.504L35.1985 5.84C34.9638 5.41333 34.6332 5.08267 34.2065 4.848C33.7905 4.60267 33.3265 4.48 32.8145 4.48C32.2492 4.48 31.7372 4.624 31.2785 4.912C30.8305 5.2 30.4678 5.6 30.1905 6.112C29.9238 6.61333 29.7905 7.17867 29.7905 7.808C29.7905 8.43733 29.9292 9.008 30.2065 9.52C30.4838 10.032 30.8518 10.4427 31.3105 10.752C31.7692 11.0507 32.2758 11.2 32.8305 11.2C33.1932 11.2 33.5452 11.136 33.8865 11.008C34.2278 10.88 34.5212 10.7093 34.7665 10.496C35.0118 10.272 35.1772 10.032 35.2625 9.776L36.3345 10.096C36.1852 10.4907 35.9398 10.848 35.5985 11.168C35.2572 11.4773 34.8518 11.7227 34.3825 11.904C33.9132 12.0747 33.4118 12.16 32.8785 12.16ZM42.2038 4.624C41.4784 4.64533 40.8384 4.848 40.2838 5.232C39.7398 5.616 39.3558 6.144 39.1318 6.816V12H38.0438V3.664H39.0678V5.664C39.3558 5.07733 39.7344 4.60267 40.2038 4.24C40.6838 3.87733 41.1904 3.67467 41.7238 3.632C41.8304 3.62133 41.9211 3.616 41.9958 3.616C42.0704 3.616 42.1398 3.62133 42.2038 3.632V4.624ZM43.6531 1.92V0.32H44.7411V1.92H43.6531ZM43.6531 12V3.664H44.7411V12H43.6531ZM51.3935 12.16C50.7002 12.16 50.0762 11.9787 49.5215 11.616C48.9775 11.2533 48.5455 10.8053 48.2255 10.272V15.408H47.1375V3.664H48.1135V5.28C48.4442 4.75733 48.8815 4.336 49.4255 4.016C49.9802 3.68533 50.5775 3.52 51.2175 3.52C51.7935 3.52 52.3215 3.64267 52.8015 3.888C53.2815 4.12267 53.6975 4.44267 54.0495 4.848C54.4122 5.25333 54.6895 5.71733 54.8815 6.24C55.0735 6.752 55.1695 7.28533 55.1695 7.84C55.1695 8.61867 55.0095 9.33867 54.6895 10C54.3802 10.6507 53.9375 11.1733 53.3615 11.568C52.7962 11.9627 52.1402 12.16 51.3935 12.16ZM51.0895 11.2C51.6975 11.2 52.2202 11.04 52.6575 10.72C53.1055 10.3893 53.4522 9.968 53.6975 9.456C53.9428 8.944 54.0655 8.40533 54.0655 7.84C54.0655 7.24267 53.9268 6.688 53.6495 6.176C53.3722 5.664 52.9988 5.25333 52.5295 4.944C52.0708 4.63467 51.5482 4.48 50.9615 4.48C50.5988 4.48 50.2148 4.576 49.8095 4.768C49.4148 4.94933 49.0628 5.2 48.7535 5.52C48.4548 5.82933 48.2788 6.17067 48.2255 6.544V9.104C48.4708 9.69067 48.8548 10.1867 49.3775 10.592C49.9002 10.9973 50.4708 11.2 51.0895 11.2ZM60.6285 12.16C59.8178 12.16 59.0978 11.9627 58.4685 11.568C57.8392 11.1627 57.3432 10.6347 56.9805 9.984C56.6178 9.32267 56.4365 8.59733 56.4365 7.808C56.4365 7.01867 56.6125 6.304 56.9645 5.664C57.3165 5.01333 57.8072 4.496 58.4365 4.112C59.0658 3.71733 59.7912 3.52 60.6125 3.52C61.3912 3.52 62.0738 3.70133 62.6605 4.064C63.2578 4.416 63.7058 4.896 64.0045 5.504L62.9485 5.84C62.7138 5.41333 62.3832 5.08267 61.9565 4.848C61.5405 4.60267 61.0765 4.48 60.5645 4.48C59.9992 4.48 59.4872 4.624 59.0285 4.912C58.5805 5.2 58.2178 5.6 57.9405 6.112C57.6738 6.61333 57.5405 7.17867 57.5405 7.808C57.5405 8.43733 57.6792 9.008 57.9565 9.52C58.2338 10.032 58.6018 10.4427 59.0605 10.752C59.5192 11.0507 60.0258 11.2 60.5805 11.2C60.9432 11.2 61.2952 11.136 61.6365 11.008C61.9778 10.88 62.2712 10.7093 62.5165 10.496C62.7618 10.272 62.9272 10.032 63.0125 9.776L64.0845 10.096C63.9352 10.4907 63.6898 10.848 63.3485 11.168C63.0072 11.4773 62.6018 11.7227 62.1325 11.904C61.6632 12.0747 61.1618 12.16 60.6285 12.16ZM65.7938 1.92V0.32H66.8818V1.92H65.7938ZM65.7938 12V3.664H66.8818V12H65.7938ZM72.8301 12.16C72.0301 12.16 71.3155 11.9627 70.6861 11.568C70.0675 11.1733 69.5821 10.6507 69.2301 10C68.8781 9.33867 68.7021 8.624 68.7021 7.856C68.7021 7.07733 68.8781 6.36267 69.2301 5.712C69.5928 5.05067 70.0835 4.52267 70.7021 4.128C71.3315 3.72267 72.0408 3.52 72.8301 3.52C73.6301 3.52 74.3395 3.72267 74.9581 4.128C75.5875 4.52267 76.0781 5.05067 76.4301 5.712C76.7928 6.36267 76.9741 7.07733 76.9741 7.856C76.9741 8.624 76.7981 9.33867 76.4461 10C76.0941 10.6507 75.6035 11.1733 74.9741 11.568C74.3555 11.9627 73.6408 12.16 72.8301 12.16ZM69.8061 7.872C69.8061 8.49067 69.9395 9.056 70.2061 9.568C70.4835 10.0693 70.8515 10.4693 71.3101 10.768C71.7688 11.056 72.2755 11.2 72.8301 11.2C73.3848 11.2 73.8915 11.0507 74.3501 10.752C74.8088 10.4533 75.1768 10.048 75.4541 9.536C75.7315 9.024 75.8701 8.45867 75.8701 7.84C75.8701 7.22133 75.7315 6.656 75.4541 6.144C75.1768 5.632 74.8088 5.22667 74.3501 4.928C73.8915 4.62933 73.3848 4.48 72.8301 4.48C72.2861 4.48 71.7848 4.63467 71.3261 4.944C70.8675 5.24267 70.4995 5.648 70.2221 6.16C69.9448 6.672 69.8061 7.24267 69.8061 7.872ZM73.2141 2.08L72.4941 1.808L73.4381 0.32H74.5901L73.2141 2.08ZM85.8018 12H84.7138V7.344C84.7138 6.36267 84.5644 5.648 84.2658 5.2C83.9778 4.74133 83.5298 4.512 82.9218 4.512C82.4951 4.512 82.0738 4.61867 81.6578 4.832C81.2418 5.03467 80.8738 5.31733 80.5538 5.68C80.2444 6.032 80.0204 6.43733 79.8818 6.896V12H78.7938V3.664H79.7858V5.552C80.1164 4.944 80.6018 4.45333 81.2418 4.08C81.8818 3.70667 82.5751 3.52 83.3218 3.52C83.9404 3.52 84.4311 3.66933 84.7938 3.968C85.1564 4.256 85.4124 4.672 85.5618 5.216C85.7218 5.74933 85.8018 6.384 85.8018 7.12V12ZM91.64 7.856C91.64 7.06667 91.8 6.34667 92.12 5.696C92.4507 5.03467 92.904 4.50667 93.48 4.112C94.056 3.71733 94.712 3.52 95.448 3.52C96.1413 3.52 96.76 3.70667 97.304 4.08C97.8587 4.44267 98.2907 4.88533 98.6 5.408V0.32H99.688V10.688C99.688 10.976 99.816 11.1253 100.072 11.136V12C99.8587 12.032 99.6933 12.0427 99.576 12.032C99.3413 12.0213 99.1387 11.936 98.968 11.776C98.808 11.6053 98.728 11.4133 98.728 11.2V10.384C98.3973 10.928 97.9493 11.36 97.384 11.68C96.8187 12 96.232 12.16 95.624 12.16C95.048 12.16 94.5147 12.0427 94.024 11.808C93.5333 11.5733 93.1067 11.2533 92.744 10.848C92.392 10.4427 92.12 9.984 91.928 9.472C91.736 8.94933 91.64 8.41067 91.64 7.856ZM98.6 9.136V6.56C98.4613 6.176 98.2373 5.82933 97.928 5.52C97.6187 5.2 97.2667 4.94933 96.872 4.768C96.488 4.576 96.104 4.48 95.72 4.48C95.1227 4.48 94.6 4.64533 94.152 4.976C93.7147 5.296 93.3733 5.71733 93.128 6.24C92.8827 6.752 92.76 7.29067 92.76 7.856C92.76 8.45333 92.8933 9.008 93.16 9.52C93.4373 10.032 93.8107 10.4427 94.28 10.752C94.7493 11.0507 95.2773 11.2 95.864 11.2C96.2267 11.2 96.6053 11.1093 97 10.928C97.4053 10.736 97.7573 10.4853 98.056 10.176C98.3653 9.86667 98.5467 9.52 98.6 9.136ZM105.753 12.16C104.953 12.16 104.238 11.9627 103.609 11.568C102.98 11.1733 102.484 10.6453 102.121 9.984C101.758 9.32267 101.577 8.59733 101.577 7.808C101.577 7.02933 101.753 6.31467 102.105 5.664C102.468 5.01333 102.964 4.496 103.593 4.112C104.222 3.71733 104.937 3.52 105.737 3.52C106.558 3.52 107.278 3.71733 107.897 4.112C108.516 4.50667 108.996 5.02933 109.337 5.68C109.689 6.32 109.865 7.024 109.865 7.792C109.865 7.96267 109.86 8.10667 109.849 8.224H102.713C102.766 8.82133 102.937 9.35467 103.225 9.824C103.513 10.2827 103.881 10.6507 104.329 10.928C104.777 11.1947 105.268 11.328 105.801 11.328C106.345 11.328 106.857 11.1893 107.337 10.912C107.817 10.6347 108.158 10.272 108.361 9.824L109.305 10.08C109.134 10.4853 108.868 10.848 108.505 11.168C108.153 11.4773 107.742 11.7227 107.273 11.904C106.804 12.0747 106.297 12.16 105.753 12.16ZM102.681 7.44H108.841C108.798 6.84267 108.633 6.31467 108.345 5.856C108.057 5.38667 107.689 5.024 107.241 4.768C106.793 4.50133 106.297 4.368 105.753 4.368C105.209 4.368 104.713 4.50133 104.265 4.768C103.817 5.024 103.449 5.38667 103.161 5.856C102.884 6.31467 102.724 6.84267 102.681 7.44ZM111.592 0.32H112.68V10.112C112.68 10.528 112.749 10.8 112.888 10.928C113.037 11.056 113.224 11.12 113.448 11.12C113.64 11.12 113.832 11.0987 114.024 11.056C114.226 11.0133 114.392 10.9707 114.52 10.928L114.712 11.808C114.509 11.8933 114.258 11.9627 113.96 12.016C113.672 12.0693 113.421 12.096 113.208 12.096C112.717 12.096 112.322 11.952 112.024 11.664C111.736 11.376 111.592 10.9813 111.592 10.48V0.32ZM123.753 12.16C123.06 12.16 122.436 11.9787 121.881 11.616C121.337 11.2533 120.905 10.8053 120.585 10.272V15.408H119.497V3.664H120.473V5.28C120.804 4.75733 121.241 4.336 121.785 4.016C122.34 3.68533 122.937 3.52 123.577 3.52C124.153 3.52 124.681 3.64267 125.161 3.888C125.641 4.12267 126.057 4.44267 126.409 4.848C126.772 5.25333 127.049 5.71733 127.241 6.24C127.433 6.752 127.529 7.28533 127.529 7.84C127.529 8.61867 127.369 9.33867 127.049 10C126.74 10.6507 126.297 11.1733 125.721 11.568C125.156 11.9627 124.5 12.16 123.753 12.16ZM123.449 11.2C124.057 11.2 124.58 11.04 125.017 10.72C125.465 10.3893 125.812 9.968 126.057 9.456C126.302 8.944 126.425 8.40533 126.425 7.84C126.425 7.24267 126.286 6.688 126.009 6.176C125.732 5.664 125.358 5.25333 124.889 4.944C124.43 4.63467 123.908 4.48 123.321 4.48C122.958 4.48 122.574 4.576 122.169 4.768C121.774 4.94933 121.422 5.2 121.113 5.52C120.814 5.82933 120.638 6.17067 120.585 6.544V9.104C120.83 9.69067 121.214 10.1867 121.737 10.592C122.26 10.9973 122.83 11.2 123.449 11.2ZM133.532 4.624C132.807 4.64533 132.167 4.848 131.612 5.232C131.068 5.616 130.684 6.144 130.46 6.816V12H129.372V3.664H130.396V5.664C130.684 5.07733 131.063 4.60267 131.532 4.24C132.012 3.87733 132.519 3.67467 133.052 3.632C133.159 3.62133 133.249 3.616 133.324 3.616C133.399 3.616 133.468 3.62133 133.532 3.632V4.624ZM138.283 12.16C137.483 12.16 136.769 11.9627 136.139 11.568C135.521 11.1733 135.035 10.6507 134.683 10C134.331 9.33867 134.155 8.624 134.155 7.856C134.155 7.07733 134.331 6.36267 134.683 5.712C135.046 5.05067 135.537 4.52267 136.155 4.128C136.785 3.72267 137.494 3.52 138.283 3.52C139.083 3.52 139.793 3.72267 140.411 4.128C141.041 4.52267 141.531 5.05067 141.883 5.712C142.246 6.36267 142.427 7.07733 142.427 7.856C142.427 8.624 142.251 9.33867 141.899 10C141.547 10.6507 141.057 11.1733 140.427 11.568C139.809 11.9627 139.094 12.16 138.283 12.16ZM135.259 7.872C135.259 8.49067 135.393 9.056 135.659 9.568C135.937 10.0693 136.305 10.4693 136.763 10.768C137.222 11.056 137.729 11.2 138.283 11.2C138.838 11.2 139.345 11.0507 139.803 10.752C140.262 10.4533 140.63 10.048 140.907 9.536C141.185 9.024 141.323 8.45867 141.323 7.84C141.323 7.22133 141.185 6.656 140.907 6.144C140.63 5.632 140.262 5.22667 139.803 4.928C139.345 4.62933 138.838 4.48 138.283 4.48C137.739 4.48 137.238 4.63467 136.779 4.944C136.321 5.24267 135.953 5.648 135.675 6.16C135.398 6.672 135.259 7.24267 135.259 7.872ZM143.687 7.856C143.687 7.06667 143.847 6.34667 144.167 5.696C144.498 5.03467 144.951 4.50667 145.527 4.112C146.103 3.71733 146.759 3.52 147.495 3.52C148.188 3.52 148.807 3.70667 149.351 4.08C149.906 4.44267 150.338 4.88533 150.647 5.408V0.32H151.735V10.688C151.735 10.976 151.863 11.1253 152.119 11.136V12C151.906 12.032 151.74 12.0427 151.623 12.032C151.388 12.0213 151.186 11.936 151.015 11.776C150.855 11.6053 150.775 11.4133 150.775 11.2V10.384C150.444 10.928 149.996 11.36 149.431 11.68C148.866 12 148.279 12.16 147.671 12.16C147.095 12.16 146.562 12.0427 146.071 11.808C145.58 11.5733 145.154 11.2533 144.791 10.848C144.439 10.4427 144.167 9.984 143.975 9.472C143.783 8.94933 143.687 8.41067 143.687 7.856ZM150.647 9.136V6.56C150.508 6.176 150.284 5.82933 149.975 5.52C149.666 5.2 149.314 4.94933 148.919 4.768C148.535 4.576 148.151 4.48 147.767 4.48C147.17 4.48 146.647 4.64533 146.199 4.976C145.762 5.296 145.42 5.71733 145.175 6.24C144.93 6.752 144.807 7.29067 144.807 7.856C144.807 8.45333 144.94 9.008 145.207 9.52C145.484 10.032 145.858 10.4427 146.327 10.752C146.796 11.0507 147.324 11.2 147.911 11.2C148.274 11.2 148.652 11.1093 149.047 10.928C149.452 10.736 149.804 10.4853 150.103 10.176C150.412 9.86667 150.594 9.52 150.647 9.136ZM154.12 8.56V3.664H155.208V8.368C155.208 10.256 155.853 11.2 157.144 11.2C157.784 11.2 158.381 10.992 158.936 10.576C159.501 10.16 159.907 9.60533 160.152 8.912V3.664H161.24V10.688C161.24 10.976 161.368 11.1253 161.624 11.136V12C161.496 12.0213 161.395 12.032 161.32 12.032C161.256 12.032 161.187 12.032 161.112 12.032C160.888 12.0107 160.696 11.9253 160.536 11.776C160.387 11.6267 160.312 11.4453 160.312 11.232L160.28 10.112C159.917 10.7627 159.421 11.2693 158.792 11.632C158.173 11.984 157.501 12.16 156.776 12.16C155.005 12.16 154.12 10.96 154.12 8.56ZM167.316 12.16C166.505 12.16 165.785 11.9627 165.156 11.568C164.527 11.1627 164.031 10.6347 163.668 9.984C163.305 9.32267 163.124 8.59733 163.124 7.808C163.124 7.01867 163.3 6.304 163.652 5.664C164.004 5.01333 164.495 4.496 165.124 4.112C165.753 3.71733 166.479 3.52 167.3 3.52C168.079 3.52 168.761 3.70133 169.348 4.064C169.945 4.416 170.393 4.896 170.692 5.504L169.636 5.84C169.401 5.41333 169.071 5.08267 168.644 4.848C168.228 4.60267 167.764 4.48 167.252 4.48C166.687 4.48 166.175 4.624 165.716 4.912C165.268 5.2 164.905 5.6 164.628 6.112C164.361 6.61333 164.228 7.17867 164.228 7.808C164.228 8.43733 164.367 9.008 164.644 9.52C164.921 10.032 165.289 10.4427 165.748 10.752C166.207 11.0507 166.713 11.2 167.268 11.2C167.631 11.2 167.983 11.136 168.324 11.008C168.665 10.88 168.959 10.7093 169.204 10.496C169.449 10.272 169.615 10.032 169.7 9.776L170.772 10.096C170.623 10.4907 170.377 10.848 170.036 11.168C169.695 11.4773 169.289 11.7227 168.82 11.904C168.351 12.0747 167.849 12.16 167.316 12.16ZM176.481 11.6C176.353 11.6533 176.119 11.7493 175.777 11.888C175.436 12.0267 175.041 12.096 174.593 12.096C174.124 12.096 173.713 11.9627 173.361 11.696C173.009 11.4293 172.833 11.0293 172.833 10.496V4.528H171.681V3.664H172.833V0.848H173.921V3.664H175.841V4.528H173.921V10.192C173.943 10.5013 174.049 10.7307 174.241 10.88C174.444 11.0187 174.673 11.088 174.929 11.088C175.228 11.088 175.495 11.04 175.729 10.944C175.975 10.8373 176.129 10.7627 176.193 10.72L176.481 11.6ZM181.252 12.16C180.452 12.16 179.737 11.9627 179.108 11.568C178.489 11.1733 178.004 10.6507 177.652 10C177.3 9.33867 177.124 8.624 177.124 7.856C177.124 7.07733 177.3 6.36267 177.652 5.712C178.015 5.05067 178.505 4.52267 179.124 4.128C179.753 3.72267 180.463 3.52 181.252 3.52C182.052 3.52 182.761 3.72267 183.38 4.128C184.009 4.52267 184.5 5.05067 184.852 5.712C185.215 6.36267 185.396 7.07733 185.396 7.856C185.396 8.624 185.22 9.33867 184.868 10C184.516 10.6507 184.025 11.1733 183.396 11.568C182.777 11.9627 182.063 12.16 181.252 12.16ZM178.228 7.872C178.228 8.49067 178.361 9.056 178.628 9.568C178.905 10.0693 179.273 10.4693 179.732 10.768C180.191 11.056 180.697 11.2 181.252 11.2C181.807 11.2 182.313 11.0507 182.772 10.752C183.231 10.4533 183.599 10.048 183.876 9.536C184.153 9.024 184.292 8.45867 184.292 7.84C184.292 7.22133 184.153 6.656 183.876 6.144C183.599 5.632 183.231 5.22667 182.772 4.928C182.313 4.62933 181.807 4.48 181.252 4.48C180.708 4.48 180.207 4.63467 179.748 4.944C179.289 5.24267 178.921 5.648 178.644 6.16C178.367 6.672 178.228 7.24267 178.228 7.872Z" fill="#A2A2A2"/>
</svg>
