<svg width="120" height="12" viewBox="0 0 120 12" fill="none" xmlns="http://www.w3.org/2000/svg">
<path d="M1.408 2.028V9H0.568V0.48H1.264L6.856 7.584V0.491999H7.696V9H6.916L1.408 2.028ZM12.2398 9.12C11.6398 9.12 11.1038 8.972 10.6318 8.676C10.1678 8.38 9.80378 7.988 9.53978 7.5C9.27578 7.004 9.14378 6.468 9.14378 5.892C9.14378 5.308 9.27578 4.772 9.53978 4.284C9.81178 3.788 10.1798 3.392 10.6438 3.096C11.1158 2.792 11.6478 2.64 12.2398 2.64C12.8398 2.64 13.3718 2.792 13.8358 3.096C14.3078 3.392 14.6758 3.788 14.9398 4.284C15.2118 4.772 15.3478 5.308 15.3478 5.892C15.3478 6.468 15.2158 7.004 14.9518 7.5C14.6878 7.988 14.3198 8.38 13.8478 8.676C13.3838 8.972 12.8478 9.12 12.2398 9.12ZM9.97178 5.904C9.97178 6.368 10.0718 6.792 10.2718 7.176C10.4798 7.552 10.7558 7.852 11.0998 8.076C11.4438 8.292 11.8238 8.4 12.2398 8.4C12.6558 8.4 13.0358 8.288 13.3798 8.064C13.7238 7.84 13.9998 7.536 14.2078 7.152C14.4158 6.768 14.5198 6.344 14.5198 5.88C14.5198 5.416 14.4158 4.992 14.2078 4.608C13.9998 4.224 13.7238 3.92 13.3798 3.696C13.0358 3.472 12.6558 3.36 12.2398 3.36C11.8318 3.36 11.4558 3.476 11.1118 3.708C10.7678 3.932 10.4918 4.236 10.2838 4.62C10.0758 5.004 9.97178 5.432 9.97178 5.904ZM26.0125 9H25.1965V5.508C25.1965 4.788 25.0805 4.256 24.8485 3.912C24.6165 3.56 24.2725 3.384 23.8165 3.384C23.3365 3.384 22.9125 3.552 22.5445 3.888C22.1765 4.224 21.9165 4.656 21.7645 5.184V9H20.9485V5.508C20.9485 4.772 20.8325 4.236 20.6005 3.9C20.3765 3.556 20.0365 3.384 19.5805 3.384C19.1085 3.384 18.6845 3.548 18.3085 3.876C17.9405 4.204 17.6805 4.636 17.5285 5.172V9H16.7125V2.748H17.4565V4.164C17.7125 3.684 18.0485 3.312 18.4645 3.048C18.8805 2.776 19.3405 2.64 19.8445 2.64C20.3645 2.64 20.7845 2.792 21.1045 3.096C21.4245 3.392 21.6205 3.776 21.6925 4.248C22.2685 3.176 23.0725 2.64 24.1045 2.64C24.8085 2.64 25.3005 2.888 25.5805 3.384C25.8685 3.872 26.0125 4.524 26.0125 5.34V9ZM30.7998 9.12C30.3118 9.12 29.8598 8.996 29.4438 8.748C29.0278 8.492 28.7038 8.172 28.4718 7.788V9H27.7398V0.24H28.5558V4.056C28.8358 3.632 29.1718 3.292 29.5638 3.036C29.9558 2.772 30.4118 2.64 30.9318 2.64C31.3718 2.64 31.7638 2.732 32.1078 2.916C32.4598 3.1 32.7598 3.348 33.0078 3.66C33.2558 3.964 33.4438 4.312 33.5718 4.704C33.6998 5.088 33.7638 5.484 33.7638 5.892C33.7638 6.476 33.6318 7.012 33.3678 7.5C33.1118 7.988 32.7598 8.38 32.3118 8.676C31.8638 8.972 31.3598 9.12 30.7998 9.12ZM30.6078 8.4C31.0638 8.4 31.4638 8.28 31.8078 8.04C32.1598 7.8 32.4358 7.492 32.6358 7.116C32.8358 6.732 32.9358 6.324 32.9358 5.892C32.9358 5.452 32.8398 5.04 32.6478 4.656C32.4638 4.272 32.2038 3.96 31.8678 3.72C31.5318 3.48 31.1438 3.36 30.7038 3.36C30.2158 3.36 29.7838 3.516 29.4078 3.828C29.0398 4.14 28.7558 4.504 28.5558 4.92V6.864C28.5958 7.152 28.7278 7.412 28.9518 7.644C29.1758 7.876 29.4398 8.06 29.7438 8.196C30.0478 8.332 30.3358 8.4 30.6078 8.4ZM38.2661 3.468C37.7221 3.484 37.2421 3.636 36.8261 3.924C36.4181 4.212 36.1301 4.608 35.9621 5.112V9H35.1461V2.748H35.9141V4.248C36.1301 3.808 36.4141 3.452 36.7661 3.18C37.1261 2.908 37.5061 2.756 37.9061 2.724C37.9861 2.716 38.0541 2.712 38.1101 2.712C38.1661 2.712 38.2181 2.716 38.2661 2.724V3.468ZM41.8656 9.12C41.2656 9.12 40.7296 8.972 40.2576 8.676C39.7856 8.38 39.4136 7.984 39.1416 7.488C38.8696 6.992 38.7336 6.448 38.7336 5.856C38.7336 5.272 38.8656 4.736 39.1296 4.248C39.4016 3.76 39.7736 3.372 40.2456 3.084C40.7176 2.788 41.2536 2.64 41.8536 2.64C42.4696 2.64 43.0096 2.788 43.4736 3.084C43.9376 3.38 44.2976 3.772 44.5536 4.26C44.8176 4.74 44.9496 5.268 44.9496 5.844C44.9496 5.972 44.9456 6.08 44.9376 6.168H39.5856C39.6256 6.616 39.7536 7.016 39.9696 7.368C40.1856 7.712 40.4616 7.988 40.7976 8.196C41.1336 8.396 41.5016 8.496 41.9016 8.496C42.3096 8.496 42.6936 8.392 43.0536 8.184C43.4136 7.976 43.6696 7.704 43.8216 7.368L44.5296 7.56C44.4016 7.864 44.2016 8.136 43.9296 8.376C43.6656 8.608 43.3576 8.792 43.0056 8.928C42.6536 9.056 42.2736 9.12 41.8656 9.12ZM39.5616 5.58H44.1816C44.1496 5.132 44.0256 4.736 43.8096 4.392C43.5936 4.04 43.3176 3.768 42.9816 3.576C42.6456 3.376 42.2736 3.276 41.8656 3.276C41.4576 3.276 41.0856 3.376 40.7496 3.576C40.4136 3.768 40.1376 4.04 39.9216 4.392C39.7136 4.736 39.5936 5.132 39.5616 5.58ZM48.8472 5.892C48.8472 5.3 48.9672 4.76 49.2072 4.272C49.4552 3.776 49.7952 3.38 50.2272 3.084C50.6592 2.788 51.1512 2.64 51.7032 2.64C52.2232 2.64 52.6872 2.78 53.0952 3.06C53.5112 3.332 53.8352 3.664 54.0672 4.056V0.24H54.8832V8.016C54.8832 8.232 54.9792 8.344 55.1712 8.352V9C55.0112 9.024 54.8872 9.032 54.7992 9.024C54.6232 9.016 54.4712 8.952 54.3432 8.832C54.2232 8.704 54.1632 8.56 54.1632 8.4V7.788C53.9152 8.196 53.5792 8.52 53.1552 8.76C52.7312 9 52.2912 9.12 51.8352 9.12C51.4032 9.12 51.0032 9.032 50.6352 8.856C50.2672 8.68 49.9472 8.44 49.6752 8.136C49.4112 7.832 49.2072 7.488 49.0632 7.104C48.9192 6.712 48.8472 6.308 48.8472 5.892ZM54.0672 6.852V4.92C53.9632 4.632 53.7952 4.372 53.5632 4.14C53.3312 3.9 53.0672 3.712 52.7712 3.576C52.4832 3.432 52.1952 3.36 51.9072 3.36C51.4592 3.36 51.0672 3.484 50.7312 3.732C50.4032 3.972 50.1472 4.288 49.9632 4.68C49.7792 5.064 49.6872 5.468 49.6872 5.892C49.6872 6.34 49.7872 6.756 49.9872 7.14C50.1952 7.524 50.4752 7.832 50.8272 8.064C51.1792 8.288 51.5752 8.4 52.0152 8.4C52.2872 8.4 52.5712 8.332 52.8672 8.196C53.1712 8.052 53.4352 7.864 53.6592 7.632C53.8912 7.4 54.0272 7.14 54.0672 6.852ZM59.432 9.12C58.832 9.12 58.296 8.972 57.824 8.676C57.352 8.38 56.98 7.984 56.708 7.488C56.436 6.992 56.3 6.448 56.3 5.856C56.3 5.272 56.432 4.736 56.696 4.248C56.968 3.76 57.34 3.372 57.812 3.084C58.284 2.788 58.82 2.64 59.42 2.64C60.036 2.64 60.576 2.788 61.04 3.084C61.504 3.38 61.864 3.772 62.12 4.26C62.384 4.74 62.516 5.268 62.516 5.844C62.516 5.972 62.512 6.08 62.504 6.168H57.152C57.192 6.616 57.32 7.016 57.536 7.368C57.752 7.712 58.028 7.988 58.364 8.196C58.7 8.396 59.068 8.496 59.468 8.496C59.876 8.496 60.26 8.392 60.62 8.184C60.98 7.976 61.236 7.704 61.388 7.368L62.096 7.56C61.968 7.864 61.768 8.136 61.496 8.376C61.232 8.608 60.924 8.792 60.572 8.928C60.22 9.056 59.84 9.12 59.432 9.12ZM57.128 5.58H61.748C61.716 5.132 61.592 4.736 61.376 4.392C61.16 4.04 60.884 3.768 60.548 3.576C60.212 3.376 59.84 3.276 59.432 3.276C59.024 3.276 58.652 3.376 58.316 3.576C57.98 3.768 57.704 4.04 57.488 4.392C57.28 4.736 57.16 5.132 57.128 5.58ZM63.811 0.24H64.627V7.584C64.627 7.896 64.679 8.1 64.783 8.196C64.895 8.292 65.035 8.34 65.203 8.34C65.347 8.34 65.491 8.324 65.635 8.292C65.787 8.26 65.911 8.228 66.007 8.196L66.151 8.856C65.999 8.92 65.811 8.972 65.587 9.012C65.371 9.052 65.183 9.072 65.023 9.072C64.655 9.072 64.359 8.964 64.135 8.748C63.919 8.532 63.811 8.236 63.811 7.86V0.24ZM72.9318 9.12C72.4118 9.12 71.9438 8.984 71.5278 8.712C71.1198 8.44 70.7958 8.104 70.5558 7.704V11.556H69.7398V2.748H70.4718V3.96C70.7198 3.568 71.0478 3.252 71.4558 3.012C71.8718 2.764 72.3198 2.64 72.7998 2.64C73.2318 2.64 73.6278 2.732 73.9878 2.916C74.3478 3.092 74.6598 3.332 74.9238 3.636C75.1958 3.94 75.4038 4.288 75.5478 4.68C75.6918 5.064 75.7638 5.464 75.7638 5.88C75.7638 6.464 75.6438 7.004 75.4038 7.5C75.1718 7.988 74.8398 8.38 74.4078 8.676C73.9838 8.972 73.4918 9.12 72.9318 9.12ZM72.7038 8.4C73.1598 8.4 73.5518 8.28 73.8798 8.04C74.2158 7.792 74.4758 7.476 74.6598 7.092C74.8438 6.708 74.9358 6.304 74.9358 5.88C74.9358 5.432 74.8318 5.016 74.6238 4.632C74.4158 4.248 74.1358 3.94 73.7838 3.708C73.4398 3.476 73.0478 3.36 72.6078 3.36C72.3358 3.36 72.0478 3.432 71.7438 3.576C71.4478 3.712 71.1838 3.9 70.9518 4.14C70.7278 4.372 70.5958 4.628 70.5558 4.908V6.828C70.7398 7.268 71.0278 7.64 71.4198 7.944C71.8118 8.248 72.2398 8.4 72.7038 8.4ZM80.2661 3.468C79.7221 3.484 79.2421 3.636 78.8261 3.924C78.4181 4.212 78.1301 4.608 77.9621 5.112V9H77.1461V2.748H77.9141V4.248C78.1301 3.808 78.4141 3.452 78.7661 3.18C79.1261 2.908 79.5061 2.756 79.9061 2.724C79.9861 2.716 80.0541 2.712 80.1101 2.712C80.1661 2.712 80.2181 2.716 80.2661 2.724V3.468ZM83.8296 9.12C83.2296 9.12 82.6936 8.972 82.2216 8.676C81.7576 8.38 81.3936 7.988 81.1296 7.5C80.8656 7.004 80.7336 6.468 80.7336 5.892C80.7336 5.308 80.8656 4.772 81.1296 4.284C81.4016 3.788 81.7696 3.392 82.2336 3.096C82.7056 2.792 83.2376 2.64 83.8296 2.64C84.4296 2.64 84.9616 2.792 85.4256 3.096C85.8976 3.392 86.2656 3.788 86.5296 4.284C86.8016 4.772 86.9376 5.308 86.9376 5.892C86.9376 6.468 86.8056 7.004 86.5416 7.5C86.2776 7.988 85.9096 8.38 85.4376 8.676C84.9736 8.972 84.4376 9.12 83.8296 9.12ZM81.5616 5.904C81.5616 6.368 81.6616 6.792 81.8616 7.176C82.0696 7.552 82.3456 7.852 82.6896 8.076C83.0336 8.292 83.4136 8.4 83.8296 8.4C84.2456 8.4 84.6256 8.288 84.9696 8.064C85.3136 7.84 85.5896 7.536 85.7976 7.152C86.0056 6.768 86.1096 6.344 86.1096 5.88C86.1096 5.416 86.0056 4.992 85.7976 4.608C85.5896 4.224 85.3136 3.92 84.9696 3.696C84.6256 3.472 84.2456 3.36 83.8296 3.36C83.4216 3.36 83.0456 3.476 82.7016 3.708C82.3576 3.932 82.0816 4.236 81.8736 4.62C81.6656 5.004 81.5616 5.432 81.5616 5.904ZM87.8823 5.892C87.8823 5.3 88.0023 4.76 88.2423 4.272C88.4903 3.776 88.8303 3.38 89.2623 3.084C89.6943 2.788 90.1863 2.64 90.7383 2.64C91.2583 2.64 91.7223 2.78 92.1303 3.06C92.5463 3.332 92.8703 3.664 93.1023 4.056V0.24H93.9183V8.016C93.9183 8.232 94.0143 8.344 94.2063 8.352V9C94.0463 9.024 93.9223 9.032 93.8343 9.024C93.6583 9.016 93.5063 8.952 93.3783 8.832C93.2583 8.704 93.1983 8.56 93.1983 8.4V7.788C92.9503 8.196 92.6143 8.52 92.1903 8.76C91.7663 9 91.3263 9.12 90.8703 9.12C90.4383 9.12 90.0383 9.032 89.6703 8.856C89.3023 8.68 88.9823 8.44 88.7103 8.136C88.4463 7.832 88.2423 7.488 88.0983 7.104C87.9543 6.712 87.8823 6.308 87.8823 5.892ZM93.1023 6.852V4.92C92.9983 4.632 92.8303 4.372 92.5983 4.14C92.3663 3.9 92.1023 3.712 91.8063 3.576C91.5183 3.432 91.2303 3.36 90.9423 3.36C90.4943 3.36 90.1023 3.484 89.7663 3.732C89.4383 3.972 89.1823 4.288 88.9983 4.68C88.8143 5.064 88.7223 5.468 88.7223 5.892C88.7223 6.34 88.8223 6.756 89.0223 7.14C89.2303 7.524 89.5103 7.832 89.8623 8.064C90.2143 8.288 90.6103 8.4 91.0503 8.4C91.3223 8.4 91.6063 8.332 91.9023 8.196C92.2063 8.052 92.4703 7.864 92.6943 7.632C92.9263 7.4 93.0623 7.14 93.1023 6.852ZM95.7072 6.42V2.748H96.5232V6.276C96.5232 7.692 97.0072 8.4 97.9752 8.4C98.4552 8.4 98.9032 8.244 99.3192 7.932C99.7432 7.62 100.047 7.204 100.231 6.684V2.748H101.047V8.016C101.047 8.232 101.143 8.344 101.335 8.352V9C101.239 9.016 101.163 9.024 101.107 9.024C101.059 9.024 101.007 9.024 100.951 9.024C100.783 9.008 100.639 8.944 100.519 8.832C100.407 8.72 100.351 8.584 100.351 8.424L100.327 7.584C100.055 8.072 99.6832 8.452 99.2112 8.724C98.7472 8.988 98.2432 9.12 97.6992 9.12C96.3712 9.12 95.7072 8.22 95.7072 6.42ZM105.604 9.12C104.996 9.12 104.456 8.972 103.984 8.676C103.512 8.372 103.14 7.976 102.868 7.488C102.596 6.992 102.46 6.448 102.46 5.856C102.46 5.264 102.592 4.728 102.856 4.248C103.12 3.76 103.488 3.372 103.96 3.084C104.432 2.788 104.976 2.64 105.592 2.64C106.176 2.64 106.688 2.776 107.128 3.048C107.576 3.312 107.912 3.672 108.136 4.128L107.344 4.38C107.168 4.06 106.92 3.812 106.6 3.636C106.288 3.452 105.94 3.36 105.556 3.36C105.132 3.36 104.748 3.468 104.404 3.684C104.068 3.9 103.796 4.2 103.588 4.584C103.388 4.96 103.288 5.384 103.288 5.856C103.288 6.328 103.392 6.756 103.6 7.14C103.808 7.524 104.084 7.832 104.428 8.064C104.772 8.288 105.152 8.4 105.568 8.4C105.84 8.4 106.104 8.352 106.36 8.256C106.616 8.16 106.836 8.032 107.02 7.872C107.204 7.704 107.328 7.524 107.392 7.332L108.196 7.572C108.084 7.868 107.9 8.136 107.644 8.376C107.388 8.608 107.084 8.792 106.732 8.928C106.38 9.056 106.004 9.12 105.604 9.12ZM112.478 8.7C112.382 8.74 112.206 8.812 111.95 8.916C111.694 9.02 111.398 9.072 111.062 9.072C110.71 9.072 110.402 8.972 110.138 8.772C109.874 8.572 109.742 8.272 109.742 7.872V3.396H108.878V2.748H109.742V0.636H110.558V2.748H111.998V3.396H110.558V7.644C110.574 7.876 110.654 8.048 110.798 8.16C110.95 8.264 111.122 8.316 111.314 8.316C111.538 8.316 111.738 8.28 111.914 8.208C112.098 8.128 112.214 8.072 112.262 8.04L112.478 8.7ZM116.056 9.12C115.456 9.12 114.92 8.972 114.448 8.676C113.984 8.38 113.62 7.988 113.356 7.5C113.092 7.004 112.96 6.468 112.96 5.892C112.96 5.308 113.092 4.772 113.356 4.284C113.628 3.788 113.996 3.392 114.46 3.096C114.932 2.792 115.464 2.64 116.056 2.64C116.656 2.64 117.188 2.792 117.652 3.096C118.124 3.392 118.492 3.788 118.756 4.284C119.028 4.772 119.164 5.308 119.164 5.892C119.164 6.468 119.032 7.004 118.768 7.5C118.504 7.988 118.136 8.38 117.664 8.676C117.2 8.972 116.664 9.12 116.056 9.12ZM113.788 5.904C113.788 6.368 113.888 6.792 114.088 7.176C114.296 7.552 114.572 7.852 114.916 8.076C115.26 8.292 115.64 8.4 116.056 8.4C116.472 8.4 116.852 8.288 117.196 8.064C117.54 7.84 117.816 7.536 118.024 7.152C118.232 6.768 118.336 6.344 118.336 5.88C118.336 5.416 118.232 4.992 118.024 4.608C117.816 4.224 117.54 3.92 117.196 3.696C116.852 3.472 116.472 3.36 116.056 3.36C115.648 3.36 115.272 3.476 114.928 3.708C114.584 3.932 114.308 4.236 114.1 4.62C113.892 5.004 113.788 5.432 113.788 5.904Z" fill="#A2A2A2"/>
</svg>
