<svg width="85" height="12" viewBox="0 0 85 12" fill="none" xmlns="http://www.w3.org/2000/svg">
<path d="M4.036 9.06C3.364 9.06 2.796 8.94 2.332 8.7C1.868 8.46 1.5 8.14 1.228 7.74C0.956 7.332 0.756 6.872 0.628 6.36C0.508 5.848 0.448 5.32 0.448 4.776V0.48H1.276V4.776C1.276 5.216 1.32 5.648 1.408 6.072C1.504 6.496 1.656 6.876 1.864 7.212C2.072 7.548 2.352 7.816 2.704 8.016C3.056 8.208 3.496 8.304 4.024 8.304C4.568 8.304 5.016 8.204 5.368 8.004C5.728 7.796 6.008 7.524 6.208 7.188C6.416 6.852 6.564 6.476 6.652 6.06C6.74 5.636 6.784 5.208 6.784 4.776V0.48H7.624V4.776C7.624 5.344 7.56 5.888 7.432 6.408C7.304 6.928 7.096 7.384 6.808 7.776C6.528 8.168 6.16 8.48 5.704 8.712C5.248 8.944 4.692 9.06 4.036 9.06ZM9.62659 9V0.48H13.2266C13.5946 0.48 13.9306 0.556 14.2346 0.707999C14.5386 0.859999 14.8026 1.068 15.0266 1.332C15.2586 1.588 15.4346 1.876 15.5546 2.196C15.6826 2.508 15.7466 2.828 15.7466 3.156C15.7466 3.564 15.6666 3.948 15.5066 4.308C15.3546 4.668 15.1346 4.972 14.8466 5.22C14.5666 5.468 14.2346 5.632 13.8506 5.712L15.9386 9H14.9906L12.9866 5.856H10.4666V9H9.62659ZM10.4666 5.112H13.2506C13.5866 5.112 13.8786 5.02 14.1266 4.836C14.3746 4.652 14.5666 4.412 14.7026 4.116C14.8386 3.812 14.9066 3.492 14.9066 3.156C14.9066 2.812 14.8266 2.496 14.6666 2.208C14.5146 1.912 14.3066 1.676 14.0426 1.5C13.7866 1.316 13.4986 1.224 13.1786 1.224H10.4666V5.112ZM17.4664 9V0.48H18.3064V8.256H23.2264V9H17.4664ZM26.5816 5.892C26.5816 5.3 26.7016 4.76 26.9416 4.272C27.1896 3.776 27.5296 3.38 27.9616 3.084C28.3936 2.788 28.8856 2.64 29.4376 2.64C29.9576 2.64 30.4216 2.78 30.8296 3.06C31.2456 3.332 31.5696 3.664 31.8016 4.056V0.24H32.6176V8.016C32.6176 8.128 32.6416 8.212 32.6896 8.268C32.7376 8.316 32.8096 8.344 32.9056 8.352V9C32.7456 9.024 32.6216 9.032 32.5336 9.024C32.3656 9.016 32.2176 8.948 32.0896 8.82C31.9616 8.692 31.8976 8.552 31.8976 8.4V7.788C31.6496 8.196 31.3136 8.52 30.8896 8.76C30.4656 9 30.0256 9.12 29.5696 9.12C29.1376 9.12 28.7376 9.032 28.3696 8.856C28.0096 8.68 27.6936 8.44 27.4216 8.136C27.1576 7.832 26.9496 7.488 26.7976 7.104C26.6536 6.712 26.5816 6.308 26.5816 5.892ZM31.8016 6.852V4.92C31.6976 4.632 31.5296 4.372 31.2976 4.14C31.0656 3.9 30.8016 3.712 30.5056 3.576C30.2176 3.432 29.9296 3.36 29.6416 3.36C29.3056 3.36 29.0016 3.432 28.7296 3.576C28.4576 3.712 28.2216 3.9 28.0216 4.14C27.8296 4.38 27.6816 4.652 27.5776 4.956C27.4736 5.26 27.4216 5.572 27.4216 5.892C27.4216 6.228 27.4776 6.548 27.5896 6.852C27.7096 7.156 27.8776 7.428 28.0936 7.668C28.3096 7.9 28.5576 8.08 28.8376 8.208C29.1176 8.336 29.4216 8.4 29.7496 8.4C29.9576 8.4 30.1736 8.36 30.3976 8.28C30.6216 8.2 30.8336 8.092 31.0336 7.956C31.2416 7.812 31.4136 7.644 31.5496 7.452C31.6856 7.26 31.7696 7.06 31.8016 6.852ZM37.1664 9.12C36.7184 9.12 36.3024 9.036 35.9184 8.868C35.5344 8.692 35.2024 8.456 34.9224 8.16C34.6424 7.856 34.4224 7.508 34.2624 7.116C34.1104 6.724 34.0344 6.304 34.0344 5.856C34.0344 5.272 34.1664 4.736 34.4304 4.248C34.7024 3.76 35.0744 3.372 35.5464 3.084C36.0184 2.788 36.5544 2.64 37.1544 2.64C37.7704 2.64 38.3064 2.788 38.7624 3.084C39.2264 3.38 39.5904 3.772 39.8544 4.26C40.1184 4.74 40.2504 5.268 40.2504 5.844C40.2504 5.908 40.2504 5.972 40.2504 6.036C40.2504 6.092 40.2464 6.136 40.2384 6.168H34.8864C34.9264 6.616 35.0504 7.016 35.2584 7.368C35.4744 7.712 35.7504 7.988 36.0864 8.196C36.4304 8.396 36.8024 8.496 37.2024 8.496C37.6104 8.496 37.9944 8.392 38.3544 8.184C38.7224 7.976 38.9784 7.704 39.1224 7.368L39.8304 7.56C39.7024 7.856 39.5064 8.124 39.2424 8.364C38.9784 8.604 38.6664 8.792 38.3064 8.928C37.9544 9.056 37.5744 9.12 37.1664 9.12ZM34.8624 5.58H39.4824C39.4504 5.124 39.3264 4.724 39.1104 4.38C38.9024 4.036 38.6264 3.768 38.2824 3.576C37.9464 3.376 37.5744 3.276 37.1664 3.276C36.7584 3.276 36.3864 3.376 36.0504 3.576C35.7144 3.768 35.4384 4.04 35.2224 4.392C35.0144 4.736 34.8944 5.132 34.8624 5.58ZM44.568 9V2.748H45.384V9H44.568ZM44.568 1.44V0.24H45.384V1.44H44.568ZM56.4813 9H55.6653V5.508C55.6653 4.78 55.5493 4.244 55.3173 3.9C55.0853 3.556 54.7413 3.384 54.2853 3.384C53.8133 3.384 53.3893 3.552 53.0133 3.888C52.6453 4.224 52.3853 4.656 52.2333 5.184V9H51.4173V5.508C51.4173 4.772 51.3053 4.236 51.0813 3.9C50.8573 3.556 50.5133 3.384 50.0493 3.384C49.5853 3.384 49.1653 3.548 48.7893 3.876C48.4133 4.204 48.1493 4.636 47.9973 5.172V9H47.1813V2.748H47.9253V4.164C48.1893 3.676 48.5253 3.3 48.9333 3.036C49.3493 2.772 49.8093 2.64 50.3133 2.64C50.8333 2.64 51.2533 2.788 51.5733 3.084C51.8933 3.38 52.0893 3.768 52.1613 4.248C52.4493 3.72 52.7933 3.32 53.1933 3.048C53.6013 2.776 54.0613 2.64 54.5733 2.64C54.9253 2.64 55.2213 2.704 55.4613 2.832C55.7093 2.96 55.9053 3.144 56.0493 3.384C56.2013 3.616 56.3093 3.9 56.3733 4.236C56.4453 4.564 56.4813 4.932 56.4813 5.34V9ZM57.7046 7.2C57.7046 6.808 57.8166 6.472 58.0406 6.192C58.2646 5.904 58.5726 5.684 58.9646 5.532C59.3646 5.372 59.8246 5.292 60.3446 5.292C60.6486 5.292 60.9646 5.316 61.2926 5.364C61.6206 5.412 61.9126 5.484 62.1686 5.58V5.052C62.1686 4.524 62.0126 4.104 61.7006 3.792C61.3886 3.48 60.9566 3.324 60.4046 3.324C60.0686 3.324 59.7366 3.388 59.4086 3.516C59.0886 3.636 58.7526 3.816 58.4006 4.056L58.0886 3.48C58.4966 3.2 58.8966 2.992 59.2886 2.856C59.6806 2.712 60.0806 2.64 60.4886 2.64C61.2566 2.64 61.8646 2.86 62.3126 3.3C62.7606 3.74 62.9846 4.348 62.9846 5.124V8.016C62.9846 8.128 63.0086 8.212 63.0566 8.268C63.1046 8.316 63.1806 8.344 63.2846 8.352V9C63.1966 9.008 63.1206 9.016 63.0566 9.024C62.9926 9.032 62.9446 9.032 62.9126 9.024C62.7126 9.016 62.5606 8.952 62.4566 8.832C62.3526 8.712 62.2966 8.584 62.2886 8.448L62.2766 7.992C61.9966 8.352 61.6326 8.632 61.1846 8.832C60.7366 9.024 60.2806 9.12 59.8166 9.12C59.4166 9.12 59.0526 9.036 58.7246 8.868C58.4046 8.692 58.1526 8.46 57.9686 8.172C57.7926 7.876 57.7046 7.552 57.7046 7.2ZM61.8926 7.68C61.9806 7.568 62.0486 7.46 62.0966 7.356C62.1446 7.252 62.1686 7.16 62.1686 7.08V6.168C61.8966 6.064 61.6126 5.984 61.3166 5.928C61.0286 5.872 60.7366 5.844 60.4406 5.844C59.8566 5.844 59.3846 5.96 59.0246 6.192C58.6646 6.424 58.4846 6.74 58.4846 7.14C58.4846 7.372 58.5446 7.592 58.6646 7.8C58.7846 8 58.9606 8.168 59.1926 8.304C59.4246 8.432 59.6966 8.496 60.0086 8.496C60.4006 8.496 60.7646 8.42 61.1006 8.268C61.4446 8.116 61.7086 7.92 61.8926 7.68ZM67.2557 9.084C66.8317 9.084 66.4397 8.996 66.0797 8.82C65.7197 8.644 65.4077 8.408 65.1437 8.112C64.8877 7.808 64.6877 7.464 64.5437 7.08C64.3997 6.696 64.3277 6.3 64.3277 5.892C64.3277 5.452 64.3957 5.04 64.5317 4.656C64.6757 4.264 64.8757 3.916 65.1317 3.612C65.3957 3.308 65.7037 3.072 66.0557 2.904C66.4077 2.728 66.7997 2.64 67.2317 2.64C67.7677 2.64 68.2317 2.776 68.6237 3.048C69.0237 3.32 69.3597 3.656 69.6317 4.056V2.748H70.3637V9.024C70.3637 9.6 70.2237 10.084 69.9437 10.476C69.6717 10.876 69.2997 11.176 68.8277 11.376C68.3637 11.576 67.8557 11.676 67.3037 11.676C66.5917 11.676 66.0157 11.548 65.5757 11.292C65.1357 11.036 64.7757 10.692 64.4957 10.26L64.9997 9.864C65.2477 10.256 65.5757 10.548 65.9837 10.74C66.3997 10.932 66.8397 11.028 67.3037 11.028C67.7117 11.028 68.0837 10.952 68.4197 10.8C68.7637 10.656 69.0357 10.436 69.2357 10.14C69.4437 9.844 69.5477 9.472 69.5477 9.024V7.788C69.3077 8.18 68.9797 8.496 68.5637 8.736C68.1477 8.968 67.7117 9.084 67.2557 9.084ZM67.4837 8.4C67.7317 8.4 67.9677 8.356 68.1917 8.268C68.4237 8.18 68.6357 8.064 68.8277 7.92C69.0197 7.768 69.1797 7.6 69.3077 7.416C69.4357 7.232 69.5157 7.044 69.5477 6.852V4.92C69.4277 4.616 69.2557 4.348 69.0317 4.116C68.8077 3.876 68.5517 3.692 68.2637 3.564C67.9837 3.428 67.6917 3.36 67.3877 3.36C67.0357 3.36 66.7197 3.436 66.4397 3.588C66.1677 3.732 65.9357 3.928 65.7437 4.176C65.5597 4.416 65.4157 4.688 65.3117 4.992C65.2077 5.296 65.1557 5.6 65.1557 5.904C65.1557 6.24 65.2157 6.56 65.3357 6.864C65.4557 7.16 65.6197 7.428 65.8277 7.668C66.0437 7.9 66.2917 8.08 66.5717 8.208C66.8597 8.336 67.1637 8.4 67.4837 8.4ZM74.8656 9.12C74.4176 9.12 74.0016 9.036 73.6176 8.868C73.2336 8.692 72.9016 8.456 72.6216 8.16C72.3416 7.856 72.1216 7.508 71.9616 7.116C71.8096 6.724 71.7336 6.304 71.7336 5.856C71.7336 5.272 71.8656 4.736 72.1296 4.248C72.4016 3.76 72.7736 3.372 73.2456 3.084C73.7176 2.788 74.2536 2.64 74.8536 2.64C75.4696 2.64 76.0056 2.788 76.4616 3.084C76.9256 3.38 77.2896 3.772 77.5536 4.26C77.8176 4.74 77.9496 5.268 77.9496 5.844C77.9496 5.908 77.9496 5.972 77.9496 6.036C77.9496 6.092 77.9456 6.136 77.9376 6.168H72.5856C72.6256 6.616 72.7496 7.016 72.9576 7.368C73.1736 7.712 73.4496 7.988 73.7856 8.196C74.1296 8.396 74.5016 8.496 74.9016 8.496C75.3096 8.496 75.6936 8.392 76.0536 8.184C76.4216 7.976 76.6776 7.704 76.8216 7.368L77.5296 7.56C77.4016 7.856 77.2056 8.124 76.9416 8.364C76.6776 8.604 76.3656 8.792 76.0056 8.928C75.6536 9.056 75.2736 9.12 74.8656 9.12ZM72.5616 5.58H77.1816C77.1496 5.124 77.0256 4.724 76.8096 4.38C76.6016 4.036 76.3256 3.768 75.9816 3.576C75.6456 3.376 75.2736 3.276 74.8656 3.276C74.4576 3.276 74.0856 3.376 73.7496 3.576C73.4136 3.768 73.1376 4.04 72.9216 4.392C72.7136 4.736 72.5936 5.132 72.5616 5.58ZM84.4646 9H83.6486V5.508C83.6486 4.772 83.5406 4.236 83.3246 3.9C83.1086 3.556 82.7686 3.384 82.3046 3.384C81.9846 3.384 81.6686 3.464 81.3566 3.624C81.0446 3.776 80.7686 3.988 80.5286 4.26C80.2966 4.524 80.1286 4.828 80.0246 5.172V9H79.2086V2.748H79.9526V4.164C80.1206 3.86 80.3406 3.596 80.6126 3.372C80.8846 3.14 81.1926 2.96 81.5366 2.832C81.8806 2.704 82.2366 2.64 82.6046 2.64C82.9486 2.64 83.2406 2.704 83.4806 2.832C83.7206 2.96 83.9126 3.144 84.0566 3.384C84.2006 3.616 84.3046 3.9 84.3686 4.236C84.4326 4.564 84.4646 4.932 84.4646 5.34V9Z" fill="#A2A2A2"/>
</svg>
